<?xml version="1.0" encoding="UTF-8" standalone="no"?>
<!-- Created with Inkscape (http://www.inkscape.org/) -->

<svg
   width="210mm"
   height="297mm"
   viewBox="0 0 210 297"
   version="1.1"
   id="svg1"
   xml:space="preserve"
   inkscape:version="1.3.2 (091e20e, 2023-11-25, custom)"
   sodipodi:docname="webs.py+gorgeous.svg"
   xmlns:inkscape="http://www.inkscape.org/namespaces/inkscape"
   xmlns:sodipodi="http://sodipodi.sourceforge.net/DTD/sodipodi-0.dtd"
   xmlns="http://www.w3.org/2000/svg"
   xmlns:svg="http://www.w3.org/2000/svg"><sodipodi:namedview
     id="namedview1"
     pagecolor="#ffffff"
     bordercolor="#000000"
     borderopacity="0.25"
     inkscape:showpageshadow="2"
     inkscape:pageopacity="0.0"
     inkscape:pagecheckerboard="0"
     inkscape:deskcolor="#d1d1d1"
     inkscape:document-units="mm"
     inkscape:zoom="0.66724888"
     inkscape:cx="396.40381"
     inkscape:cy="561.25984"
     inkscape:window-width="1680"
     inkscape:window-height="987"
     inkscape:window-x="-8"
     inkscape:window-y="-8"
     inkscape:window-maximized="1"
     inkscape:current-layer="layer1" /><defs
     id="defs1" /><g
     inkscape:label="Layer 1"
     inkscape:groupmode="layer"
     id="layer1"><path
       style="font-size:4.03972px;font-family:'OCR A Std';-inkscape-font-specification:'OCR A Std';letter-spacing:-0.369084px;stroke-width:1.04102"
       d="m 73.573293,88.784712 c 0,-0.133311 -0.02828,-0.270661 -0.193907,-0.270661 -0.165628,0 -0.193906,0.13735 -0.193906,0.270661 v 0.355496 l -0.210066,0.359535 -0.121191,-0.359535 -0.0404,-1.001851 c -0.004,-0.133311 -0.02828,-0.278741 -0.193906,-0.278741 -0.169668,0 -0.193907,0.14543 -0.189867,0.278741 l 0.0404,1.078605 0.189867,0.573641 c 0.0404,0.117151 0.0606,0.246422 0.197946,0.246422 h 0.14947 c 0.06867,0 0.125231,-0.07272 0.161589,-0.125231 l 0.210065,-0.315098 0.210066,0.315098 c 0.03636,0.05252 0.09291,0.125231 0.161588,0.125231 h 0.14947 c 0.137351,0 0.157549,-0.129271 0.197946,-0.246422 l 0.189867,-0.573641 0.0404,-1.078605 c 0.004,-0.133311 -0.0202,-0.278741 -0.189866,-0.278741 -0.165629,0 -0.189867,0.14543 -0.193907,0.278741 l -0.0404,1.001851 -0.121192,0.359535 -0.210065,-0.359535 z m 3.028318,1.252313 c 0.113112,0 0.266621,-0.02424 0.266621,-0.193906 0,-0.165629 -0.13735,-0.193907 -0.266621,-0.193907 h -0.832183 c -0.129271,0 -0.206025,-0.01616 -0.258542,-0.07272 l -0.09695,-0.105032 c -0.02828,-0.02828 -0.05656,-0.07675 -0.05656,-0.113113 v -0.129271 h 1.244234 c 0.230264,0 0.266621,-0.06463 0.266621,-0.28682 v -0.311058 c 0,-0.214105 -0.02424,-0.363575 -0.201986,-0.504965 l -0.157549,-0.125231 c -0.14947,-0.121192 -0.238343,-0.141391 -0.42821,-0.141391 h -0.355496 c -0.157549,0 -0.246423,0.004 -0.42821,0.161589 l -0.13735,0.117152 c -0.161589,0.137351 -0.189867,0.258542 -0.189867,0.464568 v 0.747348 c 0,0.210065 0.04444,0.298939 0.197946,0.43629 l 0.165628,0.14543 c 0.121192,0.105032 0.185828,0.105032 0.347416,0.105032 z m -1.244234,-1.470458 c 0,-0.113112 0.03232,-0.14139 0.08079,-0.177747 l 0.133311,-0.09695 c 0.06463,-0.04444 0.125231,-0.04444 0.197946,-0.04444 h 0.327218 c 0.06059,0 0.13735,0.004 0.185827,0.04848 l 0.149469,0.129271 c 0.05252,0.04848 0.04848,0.109073 0.04848,0.181788 v 0.234303 h -1.123042 z m 2.539511,-1.240194 c 0,-0.13331 -0.02828,-0.266621 -0.193906,-0.266621 -0.165629,0 -0.193907,0.133311 -0.193907,0.266621 v 2.439991 c 0,0.133311 0.02828,0.270661 0.193907,0.270661 0.153509,0 0.193906,-0.13331 0.193906,-0.258542 v -0.02424 l 0.08887,0.08483 c 0.109073,0.100993 0.218145,0.197946 0.375694,0.197946 h 0.399933 c 0.09695,0 0.210065,-0.0606 0.302979,-0.13735 l 0.13331,-0.113112 c 0.15351,-0.133311 0.210066,-0.242383 0.210066,-0.448409 v -0.779666 c 0,-0.206026 -0.05656,-0.315098 -0.210066,-0.448409 l -0.13331,-0.113112 c -0.09695,-0.08079 -0.185828,-0.137351 -0.286821,-0.137351 h -0.42821 c -0.177748,0 -0.254502,0.08483 -0.383773,0.214106 l -0.06868,0.06867 z m 0,1.438141 c 0,-0.117152 0.05252,-0.177748 0.117152,-0.230264 l 0.250463,-0.218145 c 0.04444,-0.0404 0.109072,-0.06868 0.161589,-0.06868 h 0.270661 c 0.0404,0 0.06867,0.01212 0.09291,0.03232 l 0.177747,0.137351 c 0.03232,0.02424 0.05252,0.08483 0.05252,0.161589 v 0.686752 c 0,0.07676 -0.004,0.169668 -0.04848,0.206026 l -0.169668,0.14139 c -0.02828,0.02424 -0.06464,0.03636 -0.121192,0.03636 h -0.294899 c -0.0404,0 -0.100993,-0.05656 -0.14947,-0.09695 L 78.01404,89.362392 C 77.913047,89.277558 77.896888,89.229081 77.896888,89.10385 Z M 81.3009,88.247429 c 0.105032,0 0.173708,0.0081 0.238343,0.07676 0.04848,0.05252 0.09291,0.08079 0.165629,0.08079 0.105032,0 0.197946,-0.08483 0.197946,-0.193907 0,-0.109072 -0.08079,-0.157549 -0.153509,-0.218145 -0.14543,-0.121191 -0.234304,-0.133311 -0.448409,-0.133311 h -0.662514 c -0.29086,0 -0.533243,0.185827 -0.533243,0.492846 0,0.250463 0.125231,0.375694 0.339336,0.472647 l 0.912977,0.416092 c 0.08887,0.0404 0.201986,0.100993 0.201986,0.193906 0,0.226224 -0.185827,0.214105 -0.323178,0.214105 h -0.525163 c -0.121192,0 -0.242384,-0.0081 -0.311059,-0.08483 -0.04444,-0.04848 -0.08887,-0.06867 -0.149469,-0.06867 -0.109073,0 -0.201986,0.08483 -0.201986,0.193907 0,0.09695 0.105032,0.169668 0.177747,0.226224 0.14543,0.113112 0.282781,0.121191 0.484767,0.121191 h 0.597878 c 0.371654,0 0.638276,-0.185827 0.638276,-0.57768 0,-0.27874 -0.129271,-0.436289 -0.379734,-0.549401 l -0.969533,-0.44033 c -0.05656,-0.02424 -0.105032,-0.04848 -0.105032,-0.113112 0,-0.125231 0.13735,-0.109073 0.218145,-0.109073 z m 2.381963,1.272512 c 0.08887,0 0.153509,0 0.210065,-0.07675 0.04444,-0.0606 0.04444,-0.105033 0.04444,-0.181788 v -0.226224 c 0,-0.07675 0,-0.121192 -0.04444,-0.181788 -0.05656,-0.07675 -0.121191,-0.07675 -0.210065,-0.07675 h -0.29086 c -0.08887,0 -0.153509,0 -0.210065,0.07675 -0.04444,0.0606 -0.04444,0.105033 -0.04444,0.181788 v 0.226224 c 0,0.07676 0,0.121192 0.04444,0.181788 0.05656,0.07675 0.121191,0.07675 0.210065,0.07675 z m 3.343415,-0.739268 c 0,-0.274701 -0.0202,-0.383774 -0.246423,-0.561522 l -0.234304,-0.181787 c -0.105033,-0.08079 -0.230264,-0.177748 -0.323177,-0.177748 h -0.266622 c -0.109072,0 -0.262582,0.14543 -0.363575,0.234304 l -0.07675,0.06867 v -0.04848 c 0,-0.129271 -0.03636,-0.254503 -0.193907,-0.254503 -0.177748,0 -0.193907,0.14947 -0.193907,0.28682 v 2.448071 c 0,0.133311 0.02828,0.266621 0.193907,0.266621 0.165629,0 0.193907,-0.13331 0.193907,-0.266621 v -0.779666 l 0.07675,0.07272 c 0.125232,0.117152 0.206026,0.230264 0.379734,0.230264 h 0.262582 c 0.105032,0 0.230264,-0.109073 0.311058,-0.173708 l 0.234304,-0.185827 c 0.226224,-0.177748 0.246423,-0.282781 0.246423,-0.561521 z m -0.387813,0.468607 c 0,0.07272 -0.0202,0.117152 -0.08079,0.169668 l -0.29086,0.242383 c -0.03636,0.03232 -0.08079,0.06868 -0.13331,0.06868 h -0.100993 c -0.04848,0 -0.109073,-0.05252 -0.165629,-0.109073 l -0.294899,-0.27874 c -0.0404,-0.03636 -0.05656,-0.109073 -0.05656,-0.165629 v -0.379734 c 0,-0.08483 0.02828,-0.129271 0.109072,-0.206025 l 0.242383,-0.230264 c 0.0404,-0.0404 0.109073,-0.113113 0.165629,-0.113113 H 86.1335 c 0.05252,0 0.09695,0.03636 0.13331,0.06868 l 0.29086,0.242383 c 0.0606,0.05252 0.08079,0.09695 0.08079,0.169668 z m 2.022427,0.242383 h -0.08483 l -0.521124,-1.143241 v -0.222184 c 0,-0.133311 -0.02828,-0.266622 -0.193906,-0.266622 -0.165629,0 -0.193907,0.133311 -0.193907,0.266622 v 0.173708 c 0,0.113112 0.0404,0.201986 0.09291,0.319138 l 0.476687,1.054367 c 0.0606,0.13331 0.06867,0.206025 0.230264,0.206025 h 0.0202 l -0.28682,0.593839 h -0.266621 c -0.129271,0 -0.266622,0.02828 -0.266622,0.193907 0,0.169668 0.153509,0.193906 0.266622,0.193906 h 0.298939 c 0.177748,0 0.222185,-0.0202 0.307019,-0.201986 l 0.977612,-2.128932 c 0.0404,-0.08483 0.04848,-0.14947 0.04848,-0.246423 v -0.157549 c 0,-0.133311 -0.02828,-0.266622 -0.193907,-0.266622 -0.165629,0 -0.193907,0.133311 -0.193907,0.266622 v 0.222184 z m 2.325407,-1.244234 h 0.650395 c 0.113112,0 0.266621,-0.02424 0.266621,-0.193906 0,-0.165629 -0.13735,-0.193907 -0.266621,-0.193907 h -0.650395 v -0.395892 c 0,-0.133311 -0.02828,-0.266622 -0.193907,-0.266622 -0.165628,0 -0.193906,0.133311 -0.193906,0.266622 v 0.395892 h -0.125232 c -0.129271,0 -0.266621,0.02828 -0.266621,0.193907 0,0.169668 0.153509,0.193906 0.266621,0.193906 h 0.125232 v 1.054367 c 0,0.210066 -0.0081,0.375694 0.14139,0.541323 0.13735,0.14947 0.307019,0.193906 0.500925,0.193906 h 0.197946 c 0.206026,0 0.391853,-0.02828 0.533243,-0.197946 0.06464,-0.07675 0.133311,-0.214105 0.133311,-0.323177 0,-0.109073 -0.08887,-0.193907 -0.197946,-0.193907 -0.09695,0 -0.169668,0.06464 -0.193907,0.157549 -0.0404,0.157549 -0.113112,0.169668 -0.270661,0.169668 h -0.197946 c -0.266622,0 -0.258542,-0.125231 -0.258542,-0.343376 z m 3.020239,0 c 0.218145,0 0.206026,0.14543 0.214105,0.331258 l 0.0404,1.195757 c 0.004,0.129271 0.03636,0.262581 0.193907,0.262581 0.173708,0 0.193907,-0.153509 0.189867,-0.290859 l -0.0404,-1.219996 c -0.0081,-0.210065 0,-0.375694 -0.173708,-0.525163 -0.161589,-0.141391 -0.29894,-0.141391 -0.375694,-0.141391 h -0.258542 c -0.129271,0 -0.246423,0.06464 -0.347416,0.129271 l -0.315098,0.206026 v -0.86854 c 0,-0.13331 -0.02828,-0.266621 -0.193907,-0.266621 -0.165629,0 -0.193907,0.133311 -0.193907,0.266621 v 2.444031 c 0,0.133311 0.02828,0.266621 0.193907,0.266621 0.165629,0 0.193907,-0.13331 0.193907,-0.266621 v -1.127082 l 0.57364,-0.359535 c 0.0404,-0.02424 0.08079,-0.03636 0.121191,-0.03636 z m 1.279118,1.066487 c 0,0.254502 0.06464,0.351455 0.266622,0.521123 0.201986,0.169669 0.28278,0.201986 0.529203,0.201986 H 96.3885 c 0.246423,0 0.327217,-0.03232 0.529203,-0.201986 0.201986,-0.169668 0.266622,-0.266621 0.266622,-0.521123 v -0.73119 c 0,-0.258542 -0.05252,-0.347416 -0.246423,-0.504965 -0.189867,-0.157549 -0.278741,-0.218145 -0.549402,-0.218145 h -0.307019 c -0.270661,0 -0.359535,0.0606 -0.549402,0.218145 -0.193906,0.157549 -0.246423,0.246423 -0.246423,0.504965 z m 0.387813,-0.73119 c 0,-0.08079 0.02828,-0.133311 0.14139,-0.230264 0.08483,-0.07272 0.14543,-0.105033 0.266622,-0.105033 H 96.3885 c 0.121191,0 0.181787,0.03232 0.266621,0.105033 0.113112,0.09695 0.14139,0.14947 0.14139,0.230264 v 0.73119 c 0,0.08079 -0.02828,0.13331 -0.14139,0.230264 -0.08483,0.07272 -0.14543,0.105032 -0.266621,0.105032 h -0.307019 c -0.121192,0 -0.181787,-0.03232 -0.266622,-0.105032 -0.113112,-0.09695 -0.14139,-0.14947 -0.14139,-0.230264 z m 3.113151,-0.298939 c 0.0404,-0.02424 0.08079,-0.03636 0.121192,-0.03636 h 0.129271 c 0.234304,0 0.254502,0.09291 0.262582,0.331258 l 0.0404,1.195757 c 0.004,0.129271 0.03636,0.262581 0.193906,0.262581 0.173708,0 0.193907,-0.153509 0.189867,-0.290859 l -0.0404,-1.219996 c -0.0081,-0.210065 0,-0.375694 -0.173708,-0.525163 -0.117152,-0.100993 -0.210065,-0.141391 -0.359535,-0.141391 h -0.28682 c -0.125231,0 -0.234304,0.06464 -0.335297,0.129271 l -0.315098,0.206026 v -0.0081 -0.04444 c 0,-0.137351 -0.0202,-0.282781 -0.193907,-0.282781 -0.177747,0 -0.193906,0.14543 -0.193906,0.28682 v 1.623968 c 0,0.133311 0.02828,0.266621 0.193906,0.266621 0.165629,0 0.193907,-0.13331 0.193907,-0.266621 v -1.127082 z m 2.70918,-0.03636 c 0.27874,0 0.34338,0.04848 0.34338,0.339337 v 0.08887 H 101.007 c -0.16967,0 -0.31914,0.02828 -0.45245,0.14543 -0.14543,0.129271 -0.18987,0.246423 -0.18987,0.43225 v 0.169668 c 0,0.201986 0.0404,0.343376 0.20199,0.476687 0.14139,0.117152 0.26662,0.13735 0.44033,0.13735 h 0.37165 c 0.12523,0 0.12927,0 0.23834,-0.05656 l 0.26662,-0.13735 c -0.004,0.109072 0.097,0.193906 0.19795,0.193906 0.12927,0 0.18583,-0.113112 0.18179,-0.226224 l -0.0404,-1.316949 c -0.004,-0.193906 -0.0242,-0.311058 -0.17371,-0.460528 -0.15351,-0.153509 -0.29894,-0.173708 -0.50092,-0.173708 h -0.53325 c -0.12927,0 -0.26662,0.02828 -0.26662,0.193907 0,0.169668 0.15351,0.193906 0.26662,0.193906 z m 0.0889,0.816024 c 0.21411,0 0.27471,0.06464 0.27471,0.278741 v 0.08483 l -0.42821,0.222184 h -0.42821 c -0.0929,0 -0.25047,-0.02828 -0.25047,-0.157549 v -0.258542 c 0,-0.14139 0.15351,-0.169668 0.25854,-0.169668 z m 2.28097,-0.779666 c 0.0404,-0.02424 0.0808,-0.03636 0.1212,-0.03636 h 0.12927 c 0.2343,0 0.2545,0.09291 0.26258,0.331258 l 0.0404,1.195757 c 0.004,0.129271 0.0363,0.262581 0.1939,0.262581 0.17371,0 0.19391,-0.153509 0.18987,-0.290859 l -0.0404,-1.219996 c -0.008,-0.210065 0,-0.375694 -0.17371,-0.525163 -0.11715,-0.100993 -0.21006,-0.141391 -0.35953,-0.141391 h -0.28682 c -0.12523,0 -0.23431,0.06464 -0.3353,0.129271 l -0.3151,0.206026 v -0.0081 -0.04444 c 0,-0.137351 -0.0202,-0.282781 -0.1939,-0.282781 -0.17775,0 -0.19391,0.14543 -0.19391,0.28682 v 1.623968 c 0,0.133311 0.0283,0.266621 0.19391,0.266621 0.16563,0 0.1939,-0.13331 0.1939,-0.266621 v -1.127082 z m 2.57183,1.207876 h -0.0848 l -0.52113,-1.143241 v -0.222184 c 0,-0.133311 -0.0283,-0.266622 -0.1939,-0.266622 -0.16563,0 -0.19391,0.133311 -0.19391,0.266622 v 0.173708 c 0,0.113112 0.0404,0.201986 0.0929,0.319138 l 0.47669,1.054367 c 0.0606,0.13331 0.0687,0.206025 0.23027,0.206025 h 0.0202 l -0.28682,0.593839 h -0.26662 c -0.12927,0 -0.26662,0.02828 -0.26662,0.193907 0,0.169668 0.15351,0.193906 0.26662,0.193906 h 0.29894 c 0.17775,0 0.22219,-0.0202 0.30702,-0.201986 l 0.97761,-2.128932 c 0.0404,-0.08483 0.0485,-0.14947 0.0485,-0.246423 v -0.157549 c 0,-0.133311 -0.0283,-0.266622 -0.19391,-0.266622 -0.16563,0 -0.1939,0.133311 -0.1939,0.266622 v 0.222184 z m 2.68898,-0.706951 c 0,-0.133311 -0.0283,-0.270661 -0.1939,-0.270661 -0.16563,0 -0.19391,0.13735 -0.19391,0.270661 v 0.355496 l -0.21006,0.359535 -0.1212,-0.359535 -0.0404,-1.001851 c -0.004,-0.133311 -0.0283,-0.278741 -0.19391,-0.278741 -0.16967,0 -0.19391,0.14543 -0.18987,0.278741 l 0.0404,1.078605 0.18987,0.573641 c 0.0404,0.117151 0.0606,0.246422 0.19794,0.246422 h 0.14947 c 0.0687,0 0.12523,-0.07272 0.16159,-0.125231 l 0.21007,-0.315098 0.21006,0.315098 c 0.0364,0.05252 0.0929,0.125231 0.16159,0.125231 h 0.14947 c 0.13735,0 0.15755,-0.129271 0.19795,-0.246422 l 0.18986,-0.573641 0.0404,-1.078605 c 0.004,-0.133311 -0.0202,-0.278741 -0.18986,-0.278741 -0.16563,0 -0.18987,0.14543 -0.19391,0.278741 l -0.0404,1.001851 -0.12119,0.359535 -0.21007,-0.359535 z m 2.65667,-0.537283 c 0.21814,0 0.20602,0.14543 0.2141,0.331258 l 0.0404,1.195757 c 0.004,0.129271 0.0364,0.262581 0.19391,0.262581 0.17371,0 0.1939,-0.153509 0.18986,-0.290859 L 112.381,88.52617 c -0.008,-0.210065 0,-0.375694 -0.17371,-0.525163 -0.16159,-0.141391 -0.29894,-0.141391 -0.37569,-0.141391 h -0.25855 c -0.12927,0 -0.24642,0.06464 -0.34741,0.129271 l -0.3151,0.206026 v -0.86854 c 0,-0.13331 -0.0283,-0.266621 -0.19391,-0.266621 -0.16563,0 -0.1939,0.133311 -0.1939,0.266621 v 2.444031 c 0,0.133311 0.0283,0.266621 0.1939,0.266621 0.16563,0 0.19391,-0.13331 0.19391,-0.266621 v -1.127082 l 0.57364,-0.359535 c 0.0404,-0.02424 0.0808,-0.03636 0.12119,-0.03636 z m 2.91117,1.789596 c 0.11311,0 0.26662,-0.02424 0.26662,-0.193906 0,-0.165629 -0.13735,-0.193907 -0.26662,-0.193907 h -0.83219 c -0.12927,0 -0.20602,-0.01616 -0.25854,-0.07272 l -0.097,-0.105032 c -0.0283,-0.02828 -0.0566,-0.07675 -0.0566,-0.113113 v -0.129271 h 1.24424 c 0.23026,0 0.26662,-0.06463 0.26662,-0.28682 v -0.311058 c 0,-0.214105 -0.0242,-0.363575 -0.20199,-0.504965 l -0.15755,-0.125231 c -0.14947,-0.121192 -0.23834,-0.141391 -0.42821,-0.141391 h -0.35549 c -0.15755,0 -0.24643,0.004 -0.42821,0.161589 l -0.13735,0.117152 c -0.16159,0.137351 -0.18987,0.258542 -0.18987,0.464568 v 0.747348 c 0,0.210065 0.0444,0.298939 0.19795,0.43629 l 0.16562,0.14543 c 0.1212,0.105032 0.18583,0.105032 0.34742,0.105032 z m -1.24424,-1.470458 c 0,-0.113112 0.0323,-0.14139 0.0808,-0.177747 l 0.13331,-0.09695 c 0.0646,-0.04444 0.12523,-0.04444 0.19794,-0.04444 h 0.32722 c 0.0606,0 0.13735,0.004 0.18583,0.04848 l 0.14947,0.129271 c 0.0525,0.04848 0.0485,0.109073 0.0485,0.181788 v 0.234303 h -1.12304 z m 2.1517,1.203837 c 0,0.133311 0.0283,0.266621 0.1939,0.266621 0.16563,0 0.19391,-0.13331 0.19391,-0.266621 v -0.981652 l 0.54132,-0.448409 c 0.0687,-0.05656 0.12119,-0.09291 0.19391,-0.09291 h 0.11311 c 0.0929,0 0.18583,0 0.23431,0.06868 0.0404,0.05656 0.0404,0.105032 0.0404,0.169668 0,0.125231 0.0566,0.238343 0.19795,0.238343 0.16563,0 0.18987,-0.13735 0.18987,-0.270661 0,-0.177747 -0.0444,-0.311058 -0.17371,-0.440329 -0.10503,-0.105033 -0.23027,-0.15351 -0.37974,-0.15351 h -0.31105 c -0.1212,0 -0.23431,0.07675 -0.34338,0.165629 l -0.30298,0.250463 v -0.15755 c 0,-0.129271 -0.0404,-0.258542 -0.19391,-0.258542 -0.17774,0 -0.1939,0.14543 -0.1939,0.28682 z m 4.17156,0.266621 c 0.11311,0 0.26662,-0.02424 0.26662,-0.193906 0,-0.165629 -0.13735,-0.193907 -0.26662,-0.193907 h -0.83219 c -0.12927,0 -0.20602,-0.01616 -0.25854,-0.07272 l -0.097,-0.105032 c -0.0283,-0.02828 -0.0566,-0.07675 -0.0566,-0.113113 v -0.129271 h 1.24424 c 0.23026,0 0.26662,-0.06463 0.26662,-0.28682 v -0.311058 c 0,-0.214105 -0.0242,-0.363575 -0.20199,-0.504965 l -0.15755,-0.125231 c -0.14947,-0.121192 -0.23834,-0.141391 -0.42821,-0.141391 h -0.35549 c -0.15755,0 -0.24642,0.004 -0.42821,0.161589 l -0.13735,0.117152 c -0.16159,0.137351 -0.18987,0.258542 -0.18987,0.464568 v 0.747348 c 0,0.210065 0.0444,0.298939 0.19795,0.43629 l 0.16563,0.14543 c 0.12119,0.105032 0.18582,0.105032 0.34741,0.105032 z m -1.24424,-1.470458 c 0,-0.113112 0.0323,-0.14139 0.0808,-0.177747 l 0.13331,-0.09695 c 0.0646,-0.04444 0.12523,-0.04444 0.19794,-0.04444 h 0.32722 c 0.0606,0 0.13735,0.004 0.18583,0.04848 l 0.14947,0.129271 c 0.0525,0.04848 0.0485,0.109073 0.0485,0.181788 v 0.234303 h -1.12305 z m 3.24647,0.953374 c 0.0889,0 0.15351,0 0.21006,-0.07675 0.0444,-0.0606 0.0444,-0.105033 0.0444,-0.181788 v -0.226224 c 0,-0.07675 0,-0.121192 -0.0444,-0.181788 -0.0566,-0.07675 -0.12119,-0.07675 -0.21006,-0.07675 h -0.29086 c -0.0889,0 -0.15351,0 -0.21007,0.07675 -0.0444,0.0606 -0.0444,0.105033 -0.0444,0.181788 v 0.226224 c 0,0.07676 0,0.121192 0.0444,0.181788 0.0566,0.07675 0.12119,0.07675 0.21007,0.07675 z m 1.44474,-0.383773 c 0,0.238343 0.0444,0.355495 0.23027,0.509005 l 0.28682,0.238343 c 0.18178,0.14947 0.2747,0.153509 0.50092,0.153509 h 0.61404 c 0.12927,0 0.26662,-0.02828 0.26662,-0.193906 0,-0.169668 -0.15351,-0.193907 -0.26662,-0.193907 h -0.68271 c -0.0768,0 -0.15351,-0.0404 -0.22219,-0.09695 l -0.2343,-0.197946 c -0.0606,-0.04848 -0.10504,-0.08887 -0.10504,-0.165629 v -0.480726 c 0,-0.07676 0.0444,-0.117152 0.10504,-0.165629 l 0.2343,-0.197946 c 0.0687,-0.05656 0.14543,-0.09695 0.22219,-0.09695 h 0.68271 c 0.11311,0 0.26662,-0.02424 0.26662,-0.193906 0,-0.165629 -0.13735,-0.193907 -0.26662,-0.193907 h -0.61404 c -0.22622,0 -0.31914,0.004 -0.50092,0.15351 l -0.28682,0.238343 c -0.18583,0.15351 -0.23027,0.270661 -0.23027,0.509005 z m 2.53951,0.177748 c 0,0.254502 0.0646,0.351455 0.26663,0.521123 0.20198,0.169669 0.28278,0.201986 0.5292,0.201986 h 0.30702 c 0.24642,0 0.32722,-0.03232 0.5292,-0.201986 0.20199,-0.169668 0.26662,-0.266621 0.26662,-0.521123 v -0.73119 c 0,-0.258542 -0.0525,-0.347416 -0.24642,-0.504965 -0.18987,-0.157549 -0.27874,-0.218145 -0.5494,-0.218145 h -0.30702 c -0.27066,0 -0.35954,0.0606 -0.5494,0.218145 -0.19391,0.157549 -0.24643,0.246423 -0.24643,0.504965 z m 0.38782,-0.73119 c 0,-0.08079 0.0283,-0.133311 0.14139,-0.230264 0.0848,-0.07272 0.14543,-0.105033 0.26662,-0.105033 h 0.30702 c 0.12119,0 0.18179,0.03232 0.26662,0.105033 0.11311,0.09695 0.14139,0.14947 0.14139,0.230264 v 0.73119 c 0,0.08079 -0.0283,0.13331 -0.14139,0.230264 -0.0848,0.07272 -0.14543,0.105032 -0.26662,0.105032 h -0.30702 c -0.12119,0 -0.18179,-0.03232 -0.26662,-0.105032 -0.11311,-0.09695 -0.14139,-0.14947 -0.14139,-0.230264 z m 3.37573,-0.161589 c 0.0323,-0.03636 0.10503,-0.13331 0.16159,-0.13331 0.10503,0 0.0848,0.13735 0.0889,0.206025 l 0.0404,1.280592 c 0.004,0.129271 0.0364,0.262581 0.19391,0.262581 0.17371,0 0.19391,-0.153509 0.18987,-0.290859 l -0.0404,-1.341187 c -0.004,-0.14947 0.004,-0.262582 -0.0929,-0.387814 -0.0768,-0.100993 -0.1939,-0.157549 -0.32317,-0.157549 -0.16967,0 -0.21815,0.0404 -0.33934,0.161589 l -0.0323,0.03232 c -0.0889,-0.121192 -0.20602,-0.193907 -0.35549,-0.193907 -0.13331,0 -0.19391,0.05252 -0.2949,0.129271 l -0.0323,0.02424 c -0.0242,-0.08887 -0.0889,-0.15351 -0.18583,-0.15351 -0.16563,0 -0.20198,0.137351 -0.20198,0.274701 v 1.636087 c 0,0.133311 0.0283,0.266621 0.1939,0.266621 0.16563,0 0.19391,-0.13331 0.19391,-0.266621 v -1.260393 l 0.16967,-0.157549 c 0.0323,-0.02828 0.0606,-0.06464 0.10503,-0.06464 0.10099,0 0.0929,0.121191 0.0929,0.185827 v 1.29675 c 0,0.133311 0.0283,0.266621 0.19391,0.266621 0.16563,0 0.19391,-0.13331 0.19391,-0.266621 v -1.260393 z"
       id="text53"
       aria-label="webs.pythonanywhere.com" /><g
       id="g75"
       transform="matrix(1.1053773,0,0,1.1053773,20.100467,8.4945986)"><path
         style="font-size:7.7611px;font-family:'OCR A Std';-inkscape-font-specification:'OCR A Std';letter-spacing:-0.709083px;stroke-width:2"
         d="m 47.380282,79.828521 c 0,0.48895 0.124178,0.675216 0.512233,1.001182 0.388055,0.325966 0.543277,0.388055 1.016704,0.388055 h 0.589844 c 0.473427,0 0.628649,-0.06209 1.016704,-0.388055 0.388055,-0.325966 0.512232,-0.512232 0.512232,-1.001182 v -1.404759 c 0,-0.49671 -0.100894,-0.667454 -0.473427,-0.970137 -0.364772,-0.302683 -0.535516,-0.4191 -1.055509,-0.4191 h -0.589844 c -0.519994,0 -0.690738,0.116417 -1.05551,0.4191 -0.372532,0.302683 -0.473427,0.473427 -0.473427,0.970137 z m 0.745066,-1.404759 c 0,-0.155222 0.05433,-0.256116 0.271638,-0.442382 0.162983,-0.1397 0.2794,-0.201789 0.512233,-0.201789 h 0.589844 c 0.232833,0 0.349249,0.06209 0.512232,0.201789 0.217311,0.186266 0.271639,0.28716 0.271639,0.442382 v 1.404759 c 0,0.155222 -0.05433,0.256117 -0.271639,0.442383 -0.162983,0.1397 -0.279399,0.201789 -0.512232,0.201789 h -0.589844 c -0.232833,0 -0.34925,-0.06209 -0.512233,-0.201789 -0.21731,-0.186266 -0.271638,-0.287161 -0.271638,-0.442383 z m 7.781555,0.380294 c 0,-0.527755 -0.03881,-0.737304 -0.473428,-1.078793 l -0.450143,-0.349249 c -0.201789,-0.155222 -0.442383,-0.341489 -0.620888,-0.341489 h -0.512233 c -0.20955,0 -0.504471,0.2794 -0.698499,0.450144 l -0.147461,0.131939 v -0.09313 c 0,-0.248356 -0.06985,-0.48895 -0.372533,-0.48895 -0.341488,0 -0.372532,0.287161 -0.372532,0.551038 v 4.703227 c 0,0.256116 0.05433,0.512233 0.372532,0.512233 0.318206,0 0.372533,-0.256117 0.372533,-0.512233 v -1.497892 l 0.147461,0.139699 c 0.240594,0.225072 0.395816,0.442383 0.729544,0.442383 h 0.504471 c 0.201789,0 0.442383,-0.20955 0.597605,-0.333727 l 0.450143,-0.357011 c 0.434622,-0.341488 0.473428,-0.543277 0.473428,-1.078793 z m -0.745066,0.900288 c 0,0.1397 -0.0388,0.225072 -0.155222,0.325966 l -0.558799,0.465666 c -0.06985,0.06209 -0.155222,0.131939 -0.256116,0.131939 h -0.194028 c -0.09313,0 -0.20955,-0.100895 -0.318205,-0.20955 l -0.56656,-0.535516 c -0.07761,-0.06985 -0.108656,-0.20955 -0.108656,-0.318205 v -0.729543 c 0,-0.162984 0.05433,-0.248356 0.20955,-0.395817 l 0.465666,-0.442382 c 0.07761,-0.07761 0.20955,-0.217311 0.318205,-0.217311 H 54.1917 c 0.100894,0 0.186266,0.06985 0.256116,0.131939 l 0.558799,0.465666 c 0.116417,0.100894 0.155222,0.186266 0.155222,0.325966 z m 5.111736,1.513414 c 0.217311,0 0.512233,-0.04657 0.512233,-0.372533 0,-0.318205 -0.263877,-0.372532 -0.512233,-0.372532 h -1.598786 c -0.248355,0 -0.395816,-0.03105 -0.496711,-0.1397 L 57.99181,80.131204 c -0.05433,-0.05433 -0.108655,-0.147461 -0.108655,-0.217311 v -0.248355 h 2.390418 c 0.442383,0 0.512233,-0.124177 0.512233,-0.551038 v -0.597605 c 0,-0.411338 -0.04657,-0.698499 -0.388055,-0.970137 l -0.302683,-0.240594 c -0.287161,-0.232833 -0.457905,-0.271639 -0.822676,-0.271639 h -0.682977 c -0.302683,0 -0.473427,0.0078 -0.822677,0.310444 l -0.263877,0.225072 c -0.310444,0.263878 -0.364772,0.496711 -0.364772,0.892527 v 1.435803 c 0,0.403577 0.08537,0.574322 0.380294,0.838199 l 0.318205,0.2794 c 0.232833,0.201788 0.357011,0.201788 0.667455,0.201788 z m -2.390418,-2.82504 c 0,-0.217311 0.06209,-0.271639 0.155222,-0.341489 l 0.256116,-0.186266 c 0.124178,-0.08537 0.240594,-0.08537 0.380294,-0.08537 h 0.628649 c 0.116416,0 0.263877,0.0078 0.357011,0.09313 l 0.28716,0.248355 c 0.100894,0.09313 0.09313,0.20955 0.09313,0.34925 v 0.450144 h -2.157585 z m 5.980979,-0.543277 c 0.07761,-0.04657 0.155222,-0.06985 0.232833,-0.06985 h 0.248355 c 0.450144,0 0.48895,0.178505 0.504472,0.63641 l 0.07761,2.297286 c 0.0078,0.248355 0.06985,0.504471 0.372533,0.504471 0.333727,0 0.372532,-0.294922 0.364771,-0.558799 l -0.07761,-2.343852 c -0.01552,-0.403577 0,-0.721782 -0.333727,-1.008943 -0.225072,-0.194028 -0.403577,-0.271639 -0.690738,-0.271639 h -0.551038 c -0.240594,0 -0.450144,0.124178 -0.644171,0.248356 l -0.605366,0.395816 v -0.01552 -0.08537 c 0,-0.263877 -0.03881,-0.543277 -0.372533,-0.543277 -0.341488,0 -0.372533,0.2794 -0.372533,0.551038 v 3.119963 c 0,0.256116 0.05433,0.512232 0.372533,0.512232 0.318205,0 0.372533,-0.256116 0.372533,-0.512232 v -2.165347 z m 5.437703,-0.06985 c 0.201788,0 0.333727,0.01552 0.457905,0.147461 0.09313,0.100894 0.178505,0.155222 0.318205,0.155222 0.201788,0 0.380294,-0.162983 0.380294,-0.372533 0,-0.20955 -0.155222,-0.302683 -0.294922,-0.419099 -0.2794,-0.232833 -0.450144,-0.256117 -0.861482,-0.256117 h -1.272821 c -0.558799,0 -1.024465,0.357011 -1.024465,0.946855 0,0.481188 0.240594,0.721782 0.651933,0.908048 l 1.754008,0.799394 c 0.170744,0.07761 0.388055,0.194027 0.388055,0.372532 0,0.434622 -0.35701,0.411339 -0.620888,0.411339 h -1.008943 c -0.232833,0 -0.465666,-0.01552 -0.597604,-0.162983 -0.08537,-0.09313 -0.170745,-0.131939 -0.287161,-0.131939 -0.20955,0 -0.388055,0.162983 -0.388055,0.372533 0,0.186266 0.201788,0.325966 0.341488,0.434621 0.2794,0.217311 0.543277,0.232833 0.931332,0.232833 h 1.148643 c 0.714021,0 1.226254,-0.35701 1.226254,-1.109837 0,-0.535516 -0.248355,-0.838199 -0.729544,-1.05551 l -1.862664,-0.84596 c -0.108655,-0.04657 -0.201788,-0.09313 -0.201788,-0.21731 0,-0.240594 0.263877,-0.20955 0.419099,-0.20955 z m 4.576221,2.444746 c 0.170744,0 0.294922,0 0.403577,-0.14746 0.08537,-0.116417 0.08537,-0.201789 0.08537,-0.34925 v -0.434622 c 0,-0.14746 0,-0.232833 -0.08537,-0.349249 -0.108655,-0.147461 -0.232833,-0.147461 -0.403577,-0.147461 h -0.558799 c -0.170744,0 -0.294922,0 -0.403577,0.147461 -0.08537,0.116416 -0.08537,0.201789 -0.08537,0.349249 v 0.434622 c 0,0.147461 0,0.232833 0.08537,0.34925 0.108655,0.14746 0.232833,0.14746 0.403577,0.14746 z m 2.775645,-0.737304 c 0,0.457905 0.08537,0.682977 0.442382,0.977898 l 0.551038,0.457905 c 0.34925,0.287161 0.527755,0.294922 0.962377,0.294922 h 1.179687 c 0.248355,0 0.512233,-0.05433 0.512233,-0.372533 0,-0.325966 -0.294922,-0.372532 -0.512233,-0.372532 h -1.311626 c -0.147461,0 -0.294922,-0.07761 -0.42686,-0.186267 l -0.450144,-0.380294 c -0.116417,-0.09313 -0.201789,-0.170744 -0.201789,-0.318205 v -0.923571 c 0,-0.147461 0.08537,-0.225072 0.201789,-0.318205 l 0.450144,-0.380294 c 0.131938,-0.108655 0.279399,-0.186266 0.42686,-0.186266 h 1.311626 c 0.217311,0 0.512233,-0.04657 0.512233,-0.372533 0,-0.318205 -0.263878,-0.372533 -0.512233,-0.372533 H 78.6095 c -0.434622,0 -0.613127,0.0078 -0.962377,0.294922 l -0.551038,0.457905 c -0.35701,0.294922 -0.442382,0.519994 -0.442382,0.977899 z m 6.376796,-1.707442 h 1.249537 c 0.217311,0 0.512233,-0.04657 0.512233,-0.372533 0,-0.318205 -0.263878,-0.372533 -0.512233,-0.372533 h -1.249537 v -0.760587 c 0,-0.256117 -0.05433,-0.512233 -0.372533,-0.512233 -0.318205,0 -0.372532,0.256116 -0.372532,0.512233 v 0.760587 H 82.04484 c -0.248356,0 -0.512233,0.05433 -0.512233,0.372533 0,0.325966 0.294922,0.372533 0.512233,0.372533 h 0.240594 v 2.025647 c 0,0.403577 -0.01552,0.721782 0.271638,1.039987 0.263878,0.287161 0.589844,0.372533 0.962377,0.372533 h 0.380293 c 0.395816,0 0.752827,-0.05433 1.024466,-0.380294 0.124177,-0.147461 0.256116,-0.411338 0.256116,-0.620888 0,-0.209549 -0.170744,-0.372532 -0.380294,-0.372532 -0.186266,0 -0.325966,0.124177 -0.372533,0.302682 -0.07761,0.302683 -0.217311,0.325967 -0.519993,0.325967 H 83.52721 c -0.512233,0 -0.496711,-0.240594 -0.496711,-0.659694 z m 5.484268,2.444746 c 0.170745,0 0.294922,0 0.403578,-0.14746 0.08537,-0.116417 0.08537,-0.201789 0.08537,-0.34925 v -0.434622 c 0,-0.14746 0,-0.232833 -0.08537,-0.349249 -0.108656,-0.147461 -0.232833,-0.147461 -0.403578,-0.147461 h -0.558799 c -0.170744,0 -0.294922,0 -0.403577,0.147461 -0.08537,0.116416 -0.08537,0.201789 -0.08537,0.349249 v 0.434622 c 0,0.147461 0,0.232833 0.08537,0.34925 0.108655,0.14746 0.232833,0.14746 0.403577,0.14746 z m 4.972036,-1.41252 c 0,-0.256116 -0.05433,-0.519993 -0.372533,-0.519993 -0.318205,0 -0.372533,0.263877 -0.372533,0.519993 v 0.682977 l -0.403577,0.690738 -0.232833,-0.690738 -0.07761,-1.924753 c -0.0078,-0.256116 -0.05433,-0.535516 -0.372532,-0.535516 -0.325967,0 -0.372533,0.2794 -0.364772,0.535516 l 0.07761,2.072214 0.364772,1.102076 c 0.07761,0.225072 0.116416,0.473427 0.380293,0.473427 h 0.287161 c 0.131939,0 0.240594,-0.1397 0.310444,-0.240594 l 0.403577,-0.605366 0.403577,0.605366 c 0.06985,0.100894 0.178506,0.240594 0.310444,0.240594 h 0.287161 c 0.263878,0 0.302683,-0.248355 0.380294,-0.473427 l 0.364772,-1.102076 0.07761,-2.072214 c 0.0078,-0.256116 -0.03881,-0.535516 -0.364772,-0.535516 -0.318205,0 -0.364772,0.2794 -0.372533,0.535516 l -0.07761,1.924753 -0.232833,0.690738 -0.403577,-0.690738 z m 5.088456,-1.032226 c 0.201789,0 0.333727,0.01552 0.457905,0.147461 0.09313,0.100894 0.178505,0.155222 0.318205,0.155222 0.201789,0 0.380294,-0.162983 0.380294,-0.372533 0,-0.20955 -0.155222,-0.302683 -0.294922,-0.419099 -0.279399,-0.232833 -0.450144,-0.256117 -0.861482,-0.256117 h -1.27282 c -0.5588,0 -1.024466,0.357011 -1.024466,0.946855 0,0.481188 0.240595,0.721782 0.651933,0.908048 l 1.754008,0.799394 c 0.170745,0.07761 0.388055,0.194027 0.388055,0.372532 0,0.434622 -0.35701,0.411339 -0.620888,0.411339 h -1.008943 c -0.232833,0 -0.465666,-0.01552 -0.597604,-0.162983 -0.08537,-0.09313 -0.170744,-0.131939 -0.287161,-0.131939 -0.20955,0 -0.388055,0.162983 -0.388055,0.372533 0,0.186266 0.201789,0.325966 0.341488,0.434621 0.2794,0.217311 0.543277,0.232833 0.931332,0.232833 h 1.148643 c 0.714021,0 1.226254,-0.35701 1.226254,-1.109837 0,-0.535516 -0.248355,-0.838199 -0.729543,-1.05551 l -1.862664,-0.84596 c -0.108656,-0.04657 -0.201789,-0.09313 -0.201789,-0.21731 0,-0.240594 0.263877,-0.20955 0.419099,-0.20955 z"
         id="path69"
         aria-label="opens.ct.ws" /><g
         id="g71"
         style="fill:#000000;fill-opacity:1;stroke:none;stroke-opacity:1"><path
           style="color:#000000;-inkscape-font-specification:'OCR A Std';fill:#000000;fill-opacity:1;stroke:none;stroke-opacity:1;-inkscape-stroke:none"
           d="m 50.236221,76.313071 c 0,0.149882 -0.03179,0.299763 -0.218009,0.299763 -0.186216,0 -0.218009,-0.149881 -0.218009,-0.299763 V 75.97491 L 49.1598,75.570684 c -0.04088,-0.02725 -0.08629,-0.04088 -0.136256,-0.04088 h -0.145339 c -0.104463,0 -0.21801,0.02725 -0.254344,0.09084 -0.03634,0.06359 -0.04088,0.181674 -0.04542,0.281596 l -0.04542,1.339849 c -0.0046,0.140798 -0.02725,0.299763 -0.213468,0.299763 -0.199842,0 -0.222551,-0.168049 -0.21801,-0.327015 l 0.04542,-1.371642 c 0.0091,-0.236177 0.0046,-0.422393 0.199843,-0.590442 0.145339,-0.122632 0.281595,-0.158967 0.404225,-0.158967 h 0.322473 c 0.118088,0 0.236176,0.05448 0.376974,0.145342 l 0.354265,0.231635 0.431477,0.422043 z"
           id="path70" /><path
           style="color:#000000;-inkscape-font-specification:'OCR A Std';fill:#000000;fill-opacity:1;stroke:none;stroke-opacity:1;-inkscape-stroke:none"
           d="m 48.751953,74.96875 c -0.147321,0 -0.320861,0.04788 -0.486328,0.1875 v 0.002 c -0.115283,0.09923 -0.179563,0.217008 -0.208984,0.333984 -0.02942,0.116977 -0.03069,0.22967 -0.03516,0.345704 l -0.04492,1.373046 c -0.0025,0.08669 -0.0019,0.18488 0.04492,0.28125 0.04686,0.09637 0.16387,0.173829 0.298828,0.173829 0.128678,0 0.238942,-0.07428 0.285157,-0.164063 0.04622,-0.08979 0.05027,-0.180303 0.05273,-0.255859 l 0.04492,-1.337891 v -0.002 c 0.0048,-0.09998 0.02385,-0.213133 0.0293,-0.222656 -0.0058,0.01023 0.002,-0.0043 0.03125,-0.01367 0.02928,-0.0094 0.07387,-0.01563 0.115234,-0.01563 h 0.144531 c 0.02723,0 0.04507,0.0053 0.06641,0.01953 l 0.002,0.002 0.583984,0.367188 V 76.3125 c 0,0.08378 0.0049,0.178011 0.05469,0.267578 0.04976,0.08957 0.160465,0.158203 0.287109,0.158203 0.126646,0 0.239303,-0.06864 0.289063,-0.158203 0.04976,-0.08957 0.05469,-0.1838 0.05469,-0.267578 V 75.839844 L 49.882861,75.373047 49.51958,75.134766 h -0.002 C 49.369152,75.038981 49.230752,74.96875 49.074219,74.96875 Z m 0,0.25 h 0.322266 c 0.07964,0 0.175424,0.03906 0.308593,0.125 l 0.34375,0.224609 0.384766,0.376953 V 76.3125 c 0,0.0661 -0.01075,0.123641 -0.02344,0.146484 -0.01269,0.02284 -0.01074,0.0293 -0.07031,0.0293 -0.05957,0 -0.05567,-0.0065 -0.06836,-0.0293 -0.01269,-0.02284 -0.02344,-0.08038 -0.02344,-0.146484 v -0.40625 l -0.697265,-0.439453 c -0.06042,-0.04028 -0.13238,-0.0625 -0.205079,-0.0625 h -0.144531 c -0.0631,0 -0.12871,0.0072 -0.191406,0.02734 -0.0627,0.02013 -0.129698,0.05314 -0.171875,0.126953 -0.06719,0.117574 -0.05799,0.238655 -0.0625,0.33789 l -0.04492,1.341797 c -0.0021,0.06524 -0.01258,0.123542 -0.02539,0.148438 -0.01281,0.0249 -0.005,0.0293 -0.0625,0.0293 -0.06488,0 -0.0609,-0.0058 -0.07422,-0.0332 -0.01332,-0.02739 -0.0216,-0.09178 -0.01953,-0.164062 l 0.04492,-1.371094 c 0.0046,-0.120143 0.0079,-0.217733 0.02734,-0.294922 0.01941,-0.07719 0.04895,-0.136255 0.128906,-0.205078 0.125211,-0.105648 0.226281,-0.128906 0.324219,-0.128906 z"
           id="path71" /></g><g
         id="g74"
         transform="translate(2.3702952,0.03000373)"><g
           id="g73"
           transform="matrix(0.75760286,0,0,1,9.4265038,-0.26003239)"
           style="fill:#000000;fill-opacity:1;stroke:none"><path
             style="color:#000000;fill:#000000;fill-opacity:1;stroke:none;-inkscape-stroke:none"
             d="m 49.246132,79.629921 h 0.08001 v 0.540067 h -0.08001 z"
             id="path72" /><path
             style="color:#000000;fill:#000000;fill-opacity:1;stroke:none;-inkscape-stroke:none"
             d="m 49.121094,79.505859 -0.0132,0.839069 c 0.116743,0.0954 0.333214,0.09194 0.343279,-0.05001 v -0.789063 z"
             id="path73"
             sodipodi:nodetypes="ccccc" /></g><path
           id="path74"
           style="fill:#000000;fill-opacity:1;stroke:none;stroke-width:0.25"
           d="m 47.135872,79.419889 a 0.37004608,0.37004608 0 0 1 -0.370046,0.370046 0.37004608,0.37004608 0 0 1 -0.370046,-0.370046 0.37004608,0.37004608 0 0 1 0.370046,-0.370046 0.37004608,0.37004608 0 0 1 0.370046,0.370046 z" /></g></g><g
       id="g85"
       transform="matrix(2.2532656,0,0,2.2532656,-105.46007,-347.45927)"><path
         style="fill:#00ffff;stroke:none;stroke-width:0.853777;stroke-opacity:1"
         d="m 90.003393,186.89176 c -0.477229,0.356 -1.252722,0.78319 -1.252722,0.78319 l -2.028218,0.35598 c 0,0 -2.863367,-2.63436 -3.280943,-3.27514 -0.417573,-0.64079 -0.835149,-2.34955 -0.835149,-3.91593 0,-1.56637 0.178963,-3.63113 0.178963,-3.63113 0,0 2.266833,-3.41756 2.565097,-3.77354 0.29827,-0.356 1.729953,-0.99679 1.729953,-0.99679 l 2.505447,-0.78318 2.028214,0.21359 2.028217,1.13918 1.670298,1.70877 1.193069,3.27515 c 0,0 0.65619,2.70555 0.596535,3.27514 -0.05965,0.5696 -0.417572,2.84795 -0.417572,2.84795 l -1.252725,2.06476 c 0,0 -0.954457,1.28157 -1.491336,1.35278 -0.536883,0.0711 -2.863365,0.28479 -2.863365,0.28479 l -0.894805,-1.42398 z"
         id="path53"
         sodipodi:nodetypes="cccsscsccccccscccccc" /><path
         style="fill:#4d4d4d;fill-opacity:1;stroke:none;stroke-width:1;stroke-opacity:1"
         d="m 84.245147,186.07002 -4.989502,-1.91904 0.921139,-1.76551 1.611992,-0.61409 1.228186,1.45847 1.535231,1.91903 z"
         id="path54" /><path
         style="fill:#f2f2f2;fill-opacity:1;stroke:none;stroke-width:1;stroke-opacity:1"
         d="m 86.010664,189.44753 1.842278,-0.30704 -0.844378,-5.52684 -1.458471,-3.9916 -4.145124,1.53523 1.381707,1.61199 1.995803,4.45218 z"
         id="path55" /><path
         style="fill:#ffffff;fill-opacity:1;stroke:none;stroke-width:1;stroke-opacity:1"
         d="m 92.381873,190.06163 1.765517,0.0768 -0.460571,-5.75712 -1.611993,-6.83178 -1.304946,-1.53523 -2.226085,0.69085 -1.995802,1.38171 1.45847,1.84228 1.842278,3.83808 c 0,0 0.9979,2.60989 1.074661,2.9937 0.07676,0.3838 1.458471,3.30075 1.458471,3.30075 z"
         id="path56" /><path
         d="m 103.51001,190.99138 c -0.008,-0.008 -0.16753,-0.0153 -0.35573,-0.0175 -0.33329,-0.004 -0.4696,-0.0472 -0.4696,-0.14939 0,-0.0187 -0.0491,-0.14013 -0.10919,-0.2699 -0.0601,-0.12979 -0.10919,-0.24869 -0.10919,-0.26433 0,-0.0156 -0.12694,-0.2815 -0.28209,-0.59082 -0.15514,-0.30933 -0.3102,-0.62707 -0.34457,-0.70611 -0.0343,-0.079 -0.0772,-0.16827 -0.0952,-0.19831 -0.018,-0.03 -0.0862,-0.16516 -0.15151,-0.30029 l -0.11877,-0.24568 -0.33198,-0.005 c -0.1826,-0.003 -0.37294,-0.003 -0.42299,0.001 -0.0742,0.005 -0.0809,-7.7e-4 -0.0364,-0.0331 0.0545,-0.0398 0.0303,-0.0367 -0.18906,0.0242 -0.0794,0.0221 -0.17148,-0.11683 -0.19983,-0.30112 -0.0119,-0.0771 -0.0365,-0.15937 -0.0547,-0.18262 -0.0204,-0.0259 -0.0183,-0.0513 0.005,-0.066 0.0256,-0.0157 0.0212,-0.041 -0.0128,-0.0752 -0.0337,-0.0337 -0.0463,-0.10478 -0.0369,-0.20697 0.008,-0.0856 0.0203,-0.23084 0.0272,-0.32278 0.007,-0.092 0.0215,-0.18205 0.0323,-0.2002 0.0109,-0.0181 0.0305,-0.084 0.0439,-0.14638 0.0133,-0.0623 0.0562,-0.14767 0.0953,-0.18957 0.039,-0.0419 0.071,-0.10625 0.071,-0.14299 0,-0.0582 0.25654,-0.34487 0.51571,-0.57616 0.10954,-0.0978 0.47575,-0.28877 0.68543,-0.35752 0.45171,-0.14809 1.14192,-0.13191 1.54694,0.0363 0.19824,0.0823 0.31135,0.16242 0.50959,0.36087 0.23242,0.23271 0.30073,0.33213 0.41241,0.6003 0.0563,0.13514 0.15176,0.55451 0.15176,0.66659 0,0.0671 0.02,0.0992 0.0637,0.10254 0.035,0.003 0.22604,0.0106 0.42445,0.0165 0.19843,0.007 0.38679,0.0232 0.41859,0.0372 0.0318,0.0139 0.0865,0.022 0.12152,0.0176 0.0413,-0.005 0.0637,0.0167 0.0637,0.0619 0,0.0384 -0.22306,0.54309 -0.49568,1.12154 -0.27263,0.57845 -0.55698,1.18277 -0.6319,1.34291 -0.44858,0.95899 -0.5475,1.13821 -0.63774,1.15546 -0.0491,0.009 -0.0954,0.0106 -0.10283,0.003 z m -0.62514,-0.15802 c -0.0123,-0.02 -0.0389,-0.0364 -0.0589,-0.0364 -0.02,0 -0.0263,0.0164 -0.0139,0.0364 0.0123,0.02 0.0389,0.0364 0.0589,0.0364 0.02,0 0.0263,-0.0164 0.0139,-0.0364 z m 0.74617,-0.0343 c 0,-0.0188 -0.0164,-0.0443 -0.0364,-0.0568 -0.02,-0.0119 -0.0364,0.003 -0.0364,0.0341 0,0.0312 0.0164,0.0568 0.0364,0.0568 0.02,0 0.0364,-0.0153 0.0364,-0.0343 z m -0.69157,-0.091 c 0,-0.009 -0.0164,-0.0262 -0.0364,-0.0385 -0.02,-0.0119 -0.0364,-0.005 -0.0364,0.016 0,0.0212 0.0164,0.0385 0.0364,0.0385 0.02,0 0.0364,-0.007 0.0364,-0.016 z m -0.0687,-0.2856 c -0.0297,-0.0298 -0.0405,-0.0255 -0.0405,0.0154 0,0.0724 0.049,0.12132 0.067,0.0671 0.008,-0.023 -0.005,-0.0601 -0.0265,-0.0824 z m 0.46908,-0.90165 c 0,-0.0189 -0.0164,-0.0343 -0.0364,-0.0343 -0.02,0 -0.0364,0.0255 -0.0364,0.0568 0,0.0312 0.0164,0.0467 0.0364,0.0341 0.02,-0.0119 0.0364,-0.038 0.0364,-0.0568 z m -0.0546,-0.33064 c 0.075,-0.014 0.12064,-0.0967 0.41868,-0.75916 0.0856,-0.19019 0.1656,-0.35399 0.17788,-0.364 0.0304,-0.0247 0.26299,-0.58068 0.28555,-0.68247 0.0178,-0.0804 0.0116,-0.082 -0.34098,-0.0861 -0.53024,-0.007 -0.5733,-0.0205 -0.59766,-0.19623 -0.0268,-0.19343 -0.17975,-0.42579 -0.34401,-0.52271 -0.21012,-0.12397 -0.61533,-0.14168 -0.92966,-0.0406 -0.21138,0.068 -0.2696,0.10585 -0.37993,0.2475 -0.1752,0.22489 -0.25185,0.49876 -0.22527,0.80481 0.043,0.49606 0.0133,0.47589 0.70321,0.47589 0.54789,0 0.56132,10e-4 0.59175,0.0819 0.0172,0.0451 0.0317,0.0965 0.0324,0.11419 7.7e-4,0.0177 0.0181,0.0427 0.0386,0.0554 0.0383,0.0237 0.17458,0.25945 0.36608,0.63343 0.0596,0.11643 0.0995,0.2392 0.0887,0.27298 -0.0123,0.0386 -0.008,0.0462 0.0111,0.0201 0.0169,-0.0226 0.0635,-0.0474 0.10353,-0.0549 z m -1.10564,-0.3321 c -0.036,-0.0357 -0.0401,-0.0315 -0.0204,0.0204 0.0137,0.036 0.034,0.0561 0.0453,0.0449 0.0113,-0.0106 3e-5,-0.0406 -0.0248,-0.0652 z m -1.13287,-2.46538 c 0,-0.02 -0.0164,-0.0364 -0.0364,-0.0364 -0.02,0 -0.0364,0.0164 -0.0364,0.0364 0,0.02 0.0164,0.0364 0.0364,0.0364 0.02,0 0.0364,-0.0164 0.0364,-0.0364 z m -0.13892,-0.0807 c -0.0261,-0.0261 -0.043,-0.0283 -0.043,-0.005 0,0.0486 0.043,0.0917 0.0673,0.0673 0.0103,-0.0106 -4.3e-4,-0.0381 -0.0243,-0.0619 z m 2.19543,-0.10135 c 0.0123,-0.02 0.005,-0.0364 -0.016,-0.0364 -0.0212,0 -0.0385,0.0164 -0.0385,0.0364 0,0.02 0.007,0.0364 0.016,0.0364 0.009,0 0.0262,-0.0164 0.0385,-0.0364 z m -1.47414,-0.0728 c 0,-0.02 -0.0164,-0.0364 -0.0364,-0.0364 -0.02,0 -0.0364,0.0164 -0.0364,0.0364 0,0.02 0.0164,0.0364 0.0364,0.0364 0.02,0 0.0364,-0.0164 0.0364,-0.0364 z m 1.91928,-0.31318 c -0.0121,-0.0119 -0.0434,-0.0134 -0.0698,-0.003 -0.029,0.0119 -0.0204,0.0204 0.022,0.022 0.0384,0.001 0.0599,-0.007 0.0478,-0.0191 z m -1.1549,-0.1032 c 0,-0.009 -0.0164,-0.0262 -0.0364,-0.0385 -0.02,-0.0119 -0.0364,-0.005 -0.0364,0.016 0,0.0212 0.0164,0.0386 0.0364,0.0386 0.02,0 0.0364,-0.007 0.0364,-0.016 z m -0.34579,-0.0932 c 0.0123,-0.02 0.006,-0.0364 -0.0139,-0.0364 -0.02,0 -0.0465,0.0164 -0.0589,0.0364 -0.0123,0.02 -0.006,0.0364 0.0139,0.0364 0.02,0 0.0465,-0.0164 0.0589,-0.0364 z m 1.0639,-0.022 c -0.012,-0.0119 -0.0434,-0.0134 -0.0698,-0.003 -0.029,0.0119 -0.0204,0.0202 0.022,0.022 0.0384,0.001 0.0598,-0.007 0.0478,-0.019 z"
         style="fill:#000000;stroke-width:0.13757"
         id="path57" /><g
         id="g68"
         transform="translate(42.333335)"><path
           style="fill:#666666;fill-opacity:1;stroke:none;stroke-width:1;stroke-opacity:1"
           d="m 45.21256,189.21725 3.147224,-0.84438 0.230283,-2.22609 -2.072561,-5.52683 -2.226085,-2.37961 -0.997902,1.15143 -0.153522,1.68875 c 0,0 0.844378,1.61199 0.921139,1.9958 0.07676,0.38381 0.614093,4.29865 0.614093,4.29865 z"
           id="path58" /><path
           style="fill:#b3b3b3;fill-opacity:1;stroke:#000000;stroke-width:1;stroke-opacity:1"
           d="m 51.430245,190.13839 0.153524,-4.06837 -1.304946,-6.06416 -1.074663,-3.14722 -0.537329,-2.6099 0.614092,-1.15142 2.456368,2.91694 c 0,0 2.533131,4.37541 2.609895,4.68245 0.07676,0.30705 0.614093,2.37961 0.614093,2.37961 l 1.458468,0.23029 0.614092,0.69085 0.460571,2.37961 -0.614093,1.61199 -2.993702,1.76552 -1.228185,0.69085 z"
           id="path59" /><path
           style="fill:#f2f2f2;fill-opacity:1;stroke:#000000;stroke-width:1;stroke-opacity:1"
           d="m 55.268325,183.22985 5.219785,-1.612 c 0,0 0.537331,-0.61409 0.46057,-0.9979 -0.07676,-0.38381 -0.921139,-2.14932 -1.074663,-2.68665 -0.153522,-0.53733 -2.916939,-6.44797 -3.223985,-6.83178 -0.307046,-0.38381 -1.765517,-0.9979 -2.916939,-0.84438 -1.151424,0.15352 -3.761316,1.22819 -3.761316,1.22819 l -1.074664,0.9979 c 0,0 0.844378,1.15142 1.304947,1.45847 0.46057,0.30704 2.45637,3.3775 2.45637,3.3775 l 1.38171,2.37961 c 0,0 0.307046,1.91904 0.460568,2.30285 0.153524,0.38381 0.767617,1.22819 0.767617,1.22819 z"
           id="path60" /><g
           id="g67"
           transform="matrix(0,0.58582932,-0.58582932,0,176.39718,153.33979)"><path
             d="m 50.919757,239.28698 c -0.947937,-0.28612 -2.631478,-1.59022 -2.444165,-1.8933 0.08216,-0.13294 0.007,-0.20899 -0.167095,-0.169 -0.174061,0.04 -0.597938,-0.44884 -0.941949,-1.08628 -0.344011,-0.63745 -0.73038,-1.29229 -0.858599,-1.45521 -0.128218,-0.16293 -0.501444,-1.12966 -0.82939,-2.14831 -0.967313,-3.0046 -1.294321,-3.57187 -2.05903,-3.57187 -1.086775,0 -2.344286,-1.16414 -2.927935,-2.71053 -0.288648,-0.76479 -1.011821,-2.41547 -1.607051,-3.66819 -0.595231,-1.25273 -1.082328,-2.38382 -1.08244,-2.51354 -1.11e-4,-0.12973 -1.127816,-0.23899 -2.506011,-0.24281 -2.459817,-0.007 -2.521938,-0.0226 -3.384593,-0.8587 -1.618804,-1.569 -3.038266,-5.11102 -3.51402,-8.76861 -0.448399,-3.44729 -0.41797,-3.97318 0.30087,-5.19979 0.444475,-0.75844 0.839637,-1.15222 1.068234,-1.0645 0.199543,0.0766 0.362806,0.0379 0.362806,-0.086 0,-0.25243 2.931176,-1.76237 3.241146,-1.66962 0.10914,0.0327 0.198437,-0.0457 0.198437,-0.17416 0,-0.26736 2.499738,-1.50491 7.540625,-3.73317 0.291042,-0.12865 1.239959,-0.4308 2.108704,-0.67145 0.868746,-0.24065 2.002656,-0.6534 2.5198,-0.91723 0.802126,-0.40921 1.055971,-0.43103 1.727857,-0.14853 1.080987,0.45452 1.252296,0.72344 2.241778,3.51904 1.159327,3.27546 1.136985,3.25266 2.911237,2.97099 5.051118,-0.80187 6.483242,-0.28772 7.91765,2.84256 0.281049,0.61333 0.757676,1.37992 1.059174,1.70354 0.301497,0.32362 0.548176,0.74673 0.548176,0.94025 0,0.30519 0.507209,1.32901 1.782037,3.5971 0.179756,0.31981 0.328584,1.30486 0.330729,2.189 0.0033,1.34118 -0.09756,1.70284 -0.608464,2.18281 -0.336801,0.31641 -0.719774,0.57529 -0.851051,0.57529 -0.131276,0 -0.751258,0.19575 -1.377736,0.435 -1.235883,0.47199 -1.253987,0.57587 -0.416315,2.38872 0.213312,0.46164 0.416599,0.99742 0.451748,1.19062 0.148901,0.81847 1.094368,3.12941 1.280321,3.12941 0.277262,0 0.25512,1.15354 -0.03649,1.901 -0.46703,1.19711 -2.005734,2.53787 -3.814084,3.32345 -1.92854,0.83779 -1.99769,0.93269 -3.663799,5.02815 -0.192402,0.47294 -0.42594,0.8599 -0.518973,0.8599 -0.09303,0 -0.232868,0.26789 -0.310744,0.59531 -0.188173,0.79115 -0.781858,2.30401 -1.19404,3.04271 -0.351467,0.62989 -1.146373,0.73768 -2.477355,0.33595 z m 0.840882,-2.78335 c 0,-0.21828 0.219322,-0.6162 0.487381,-0.88425 0.494902,-0.49491 0.747452,-1.13397 1.006082,-2.54582 0.07901,-0.43133 0.37062,-0.98107 0.648016,-1.22166 0.725136,-0.6289 0.622753,-0.78597 -0.302157,-0.46355 -0.703386,0.2452 -2.447054,1.77286 -3.320436,2.90909 -0.332273,0.43227 -0.05615,1.39851 0.61001,2.1346 0.518481,0.57292 0.871104,0.6019 0.871104,0.0716 z m -3.035866,-4.69931 c 0.354862,-0.32905 1.212869,-0.89459 1.906681,-1.25677 0.693813,-0.36218 1.325439,-0.7436 1.403615,-0.84761 0.07818,-0.104 0.971144,-0.49201 1.984375,-0.86224 1.01323,-0.37023 2.024739,-0.77601 2.247797,-0.90173 0.223057,-0.12573 0.81837,-0.31047 1.322916,-0.41053 0.504547,-0.10007 1.428833,-0.43439 2.05397,-0.74294 0.863387,-0.42615 1.117795,-0.69261 1.058333,-1.10848 -0.07159,-0.50068 -0.236583,-0.5424 -1.930362,-0.48816 -1.018646,0.0326 -2.387865,0.18027 -3.042708,0.32811 -0.654844,0.14784 -1.602476,0.3356 -2.105849,0.41723 -0.503373,0.0816 -1.039154,0.25007 -1.190625,0.3743 -0.151471,0.12423 -0.717546,0.2954 -1.257945,0.38038 -0.767679,0.12072 -4.102372,1.13719 -4.362137,1.32964 -0.05518,0.0409 0.670146,3.47721 0.856198,4.05634 0.148087,0.46096 0.315968,0.41842 1.055741,-0.26754 z m 1.580658,-6.77765 c 2.182813,-0.59792 4.206875,-1.08935 4.497917,-1.09206 0.797486,-0.007 4.67731,-0.99829 4.940845,-1.26182 0.130755,-0.13076 -0.0074,-0.79409 -0.319511,-1.53413 -0.302428,-0.71708 -0.665245,-1.58378 -0.806259,-1.92601 -0.196088,-0.47589 -0.33835,-0.55422 -0.604868,-0.33303 -0.191663,0.15907 -0.418899,0.21879 -0.504969,0.13272 -0.08607,-0.0861 -0.308203,-0.0627 -0.49363,0.0519 -0.185427,0.1146 -0.603174,0.23672 -0.928326,0.27139 -0.325152,0.0347 -1.044563,0.27932 -1.598692,0.54366 -0.554129,0.26435 -1.067038,0.4888 -1.139799,0.49878 -0.07276,0.01 -0.593316,0.21927 -1.156791,0.46509 -0.563474,0.24582 -1.188553,0.44695 -1.389062,0.44695 -0.20051,0 -0.364563,0.10616 -0.364563,0.2359 0,0.12975 -0.309601,0.31361 -0.688001,0.40858 -0.3784,0.095 -1.018776,0.41723 -1.423058,0.71613 -0.404282,0.2989 -1.035757,0.56152 -1.403277,0.58361 -0.367521,0.0221 -0.619371,0.11928 -0.559668,0.21599 0.0597,0.0967 -0.295525,0.42558 -0.789396,0.7308 -1.185006,0.73238 -1.531906,1.18098 -1.326723,1.71568 0.230532,0.60076 1.192623,0.46257 6.057831,-0.87011 z m -7.561459,-1.72436 c 0.526987,-0.46558 5.358313,-2.90178 6.767709,-3.41262 0.582083,-0.21098 2.010833,-0.76594 3.175,-1.23324 3.693775,-1.48268 4.461023,-1.76552 6.085417,-2.24338 0.873125,-0.25684 1.994896,-0.66358 2.492824,-0.90384 1.117113,-0.53904 1.298273,-1.29779 0.365744,-1.53184 -1.094959,-0.27481 -5.946837,0.26295 -10.92836,1.21127 -1.366938,0.26022 -10.484306,3.26838 -10.769032,3.5531 -0.110985,0.11099 1.32108,4.135 1.683717,4.73114 0.187286,0.30788 0.66771,0.23516 1.126981,-0.17059 z m -5.535416,-4.12058 c 0,-0.14096 -0.178594,-0.18775 -0.396875,-0.10399 -0.218282,0.0838 -0.396875,0.19909 -0.396875,0.25628 0,0.0572 0.178593,0.10399 0.396875,0.10399 0.218281,0 0.396875,-0.11533 0.396875,-0.25628 z m 1.322916,-2.35951 c 1.236927,-0.27644 2.78474,-0.6939 3.439584,-0.92768 6.698103,-2.39118 14.660696,-3.94468 18.917709,-3.69081 0.873125,0.0521 1.459753,0.004 1.303617,-0.10584 -0.339618,-0.23987 -0.742344,-1.14663 -0.683775,-1.53956 0.02301,-0.15439 -0.196333,-0.53637 -0.487437,-0.84883 -0.291104,-0.31246 -0.52928,-0.65052 -0.52928,-0.75125 0,-0.5998 -1.525307,-3.13688 -2.289088,-3.80748 -1.022394,-0.89768 -1.603715,-0.9595 -4.696646,-0.49948 l -1.980266,0.29452 0.548045,1.46478 0.548044,1.46478 -0.629107,0.48377 c -0.346009,0.26607 -0.926764,0.49526 -1.290566,0.50931 -1.365959,0.0528 -3.603262,0.64495 -5.423958,1.43567 -0.436563,0.1896 -1.329532,0.54613 -1.984375,0.79228 -1.506362,0.56624 -3.003284,1.25525 -3.175001,1.4614 -0.07276,0.0874 -0.547401,0.44914 -1.054758,0.80396 -0.507357,0.35483 -1.146489,0.86916 -1.420293,1.14296 -0.410104,0.41011 -0.543342,0.43405 -0.756137,0.13587 -0.196144,-0.27485 -0.221109,-0.24699 -0.103728,0.11576 0.114498,0.35383 -0.03692,0.54447 -0.583914,0.73515 -0.87264,0.30421 -1.834716,1.71027 -1.308306,1.91208 0.371157,0.14229 0.478503,0.12514 3.639636,-0.58136 z m -4.049995,-2.52038 c 1.240167,-1.12164 2.805637,-2.11425 5.902079,-3.74234 1.091406,-0.57385 2.043906,-1.10401 2.116666,-1.17814 0.215277,-0.21931 3.025197,-1.32044 3.369575,-1.32044 0.174152,0 0.707632,-0.17132 1.185512,-0.38071 0.477879,-0.20939 1.166528,-0.44646 1.53033,-0.52683 1.171835,-0.25885 1.417735,-0.53757 1.061512,-1.20318 -0.459785,-0.85912 -1.590678,-4.04153 -1.590678,-4.47628 0,-0.20437 -0.313455,-0.99064 -0.696567,-1.74725 l -0.696566,-1.37568 -1.883121,0.72087 c -1.035717,0.39648 -2.329606,0.91594 -2.875309,1.15435 -0.545703,0.23842 -0.992188,0.36816 -0.992188,0.28833 0,-0.0798 -0.26789,0.002 -0.595312,0.18216 -0.327422,0.18003 -0.771745,0.35632 -0.987385,0.39178 -0.21564,0.0354 -0.433921,0.19001 -0.485069,0.34345 -0.05115,0.15345 -0.268522,0.27899 -0.483052,0.27899 -0.447357,0 -2.340441,1.02201 -3.970578,2.14358 -0.613014,0.42176 -1.212182,0.77157 -1.331483,0.77735 -0.119302,0.006 -0.771121,0.52086 -1.448486,1.14463 l -1.231574,1.13414 0.08983,2.0965 c 0.08681,2.02612 1.102606,5.86032 1.763573,6.65674 0.318132,0.38332 0.319243,0.38265 2.248295,-1.36202 z"
             style="fill:#000000"
             id="path61" /><g
             id="g66"><path
               id="path62"
               style="stroke-width:0.25"
               d="m 43.854919,199.32614 a 2.6122966,1.741531 0 0 1 -2.612297,1.74153 2.6122966,1.741531 0 0 1 -2.612296,-1.74153 2.6122966,1.741531 0 0 1 2.612296,-1.74153 2.6122966,1.741531 0 0 1 2.612297,1.74153 z" /><path
               id="path63"
               style="stroke-width:0.25"
               d="m 46.708998,206.67165 a 1.741531,2.6122966 37.423831 0 1 -0.204454,3.13293 1.741531,2.6122966 37.423831 0 1 -2.970568,1.01625 1.741531,2.6122966 37.423831 0 1 0.204454,-3.13293 1.741531,2.6122966 37.423831 0 1 2.970568,-1.01625 z" /><g
               id="g65"
               transform="matrix(0.17490634,0.66572604,-0.66572604,0.17490634,176.44003,154.53948)"><path
                 style="color:#000000;-inkscape-font-specification:'OCR A Std';fill:#000000;-inkscape-stroke:none"
                 d="m 18.942739,194.08286 -1.140882,-2.96474 v -1.24177 c 0,-0.24836 -0.108655,-0.38806 -0.388055,-0.38806 -0.2794,0 -0.388055,0.1397 -0.388055,0.38806 v 1.22625 c 0,0.1009 0.0078,0.20955 0.04657,0.30268 l 1.48237,3.77966 c 0.07761,0.19403 0.147461,0.34149 0.388055,0.34149 0.240594,0 0.310444,-0.14746 0.388055,-0.34149 l 1.48237,-3.77966 c 0.0388,-0.0931 0.04657,-0.20178 0.04657,-0.30268 v -1.22625 c 0,-0.24836 -0.108655,-0.38806 -0.388055,-0.38806 -0.279399,0 -0.388055,0.1397 -0.388055,0.38806 v 1.24177 z"
                 id="path64" /><path
                 style="color:#000000;-inkscape-font-specification:'OCR A Std';fill:#000000;-inkscape-stroke:none"
                 d="m 17.414062,188.98828 c -0.223033,0 -0.484183,0.0667 -0.664062,0.25781 -0.179879,0.19113 -0.224609,0.43377 -0.224609,0.63086 v 1.22657 c 0,0.12666 0.0033,0.29559 0.08594,0.49414 l 1.478516,3.77148 v 0.002 c 0.04179,0.10449 0.08961,0.24595 0.232422,0.39844 0.142813,0.1525 0.398647,0.25781 0.621093,0.25781 0.222447,0 0.476328,-0.10531 0.619141,-0.25781 0.142813,-0.15249 0.190628,-0.29395 0.232422,-0.39844 v -0.002 l 1.480469,-3.77148 c 0.08283,-0.19876 0.08398,-0.36758 0.08398,-0.49414 v -1.22657 c 0,-0.19709 -0.04473,-0.43973 -0.224609,-0.63086 -0.179879,-0.19112 -0.439077,-0.25781 -0.66211,-0.25781 -0.223033,0 -0.484183,0.0667 -0.664062,0.25781 -0.179879,0.19113 -0.22461,0.43377 -0.22461,0.63086 v 1.14844 l -0.640625,1.66406 -0.640625,-1.66406 v -1.14844 c 0,-0.19709 -0.04668,-0.43973 -0.226562,-0.63086 -0.179879,-0.19112 -0.439076,-0.25781 -0.66211,-0.25781 z"
                 id="path65" /></g></g></g></g><path
         style="fill:none;stroke:#000000;stroke-width:1.04725;stroke-opacity:1"
         d="m 78.402975,179.22184 2.830201,0.20238 0.464659,-3.15716 -4.000719,-1.85181 3.958477,1.93276 1.900881,-2.79286 -2.618991,-2.2262 2.576749,2.26667 1.463183,-1.27505 -0.935374,-1.18896 0.89616,1.18518 1.955374,-1.19023 -1.206847,-2.40965 1.164606,2.57156 2.407783,-0.97143 -0.126726,-3.6024 0.168967,3.52144 -2.450024,1.13334 -1.997616,0.99289 -1.592936,1.55712 -1.562947,2.2262 -0.168968,1.78097 -0.295691,1.57857 z"
         id="path68"
         sodipodi:nodetypes="cccccccccccccccccccccccc" /><path
         style="font-size:27.0995px;font-family:'OCR A Std';-inkscape-font-specification:'OCR A Std';letter-spacing:-2.47591px;stroke-width:0.773151"
         d="m 79.403602,187.95975 h 0.288027 c 0.174017,0 0.408038,0.0301 0.408038,0.25203 v 0.25802 c 0,0.22202 -0.252023,0.24002 -0.408038,0.24002 h -0.288027 z m 1.464133,2.79026 c 0.252022,0 0.510046,-0.14401 0.666061,-0.33603 0.186015,-0.22802 0.180015,-0.41404 0.180015,-0.69606 v -2.52023 c 0,-0.49204 -0.228021,-0.84607 -0.696063,-1.03209 -0.210018,-0.084 -0.312027,-0.084 -0.522047,-0.084 H 79.81164 c -0.306026,0 -0.54005,0.036 -0.78607,0.24602 -0.144014,0.12002 -0.342032,0.36604 -0.342032,0.56405 0,0.15602 0.132012,0.27003 0.288027,0.27003 0.192016,0 0.252023,-0.15602 0.330029,-0.30003 0.108009,-0.19802 0.294027,-0.20402 0.492044,-0.20402 h 0.762069 c 0.204018,0 0.384035,0.03 0.504046,0.21002 0.09601,0.14401 0.07801,0.28202 0.07801,0.45004 v 2.3222 c 0,0.21603 0.03001,0.53406 -0.282027,0.53406 h -0.09001 l -0.660057,-0.97809 c 0.318027,-0.078 0.57005,-0.31203 0.57005,-0.73207 v -0.30002 c 0,-0.49205 -0.372033,-0.78008 -0.810072,-0.78008 h -1.038095 v 2.85026 c 0,0.18002 0.09601,0.27603 0.288027,0.27603 0.210018,0 0.288024,-0.096 0.288024,-0.27603 v -0.94808 h 0.09001 l 0.804072,1.21811 c 0.126011,0.15601 0.252023,0.24602 0.504046,0.24602 z"
         id="path75"
         aria-label="" /></g><path
       style="font-size:14.1111px;font-family:Papyrus;-inkscape-font-specification:Papyrus;letter-spacing:-0.709083px;stroke-width:1.43857"
       d="m 132.02905,83.040495 q 0.12888,-0.11898 0.19829,-0.30728 0.24779,0.0203 0.32708,0.0203 0.56498,0.0297 0.7434,0.11897 l 0.26762,0.1388 q 0.29738,0.0892 0.33702,0.11897 0.10906,0.0992 0.337,0.43612 0.26764,0.42623 0.26764,0.59473 l 0.0397,0.35685 0.10905,0.27751 0.0203,0.8128 q 0.0992,0.41631 0.0992,0.46586 0,0.0892 -0.0694,0.46589 -0.10906,0.0991 -0.14872,0.24779 l 0.19829,0.1388 q 0,0.1388 0,0.2082 0,0.0892 0,0.17846 0.009,0.11897 0.009,0.18837 0,0.15863 -0.18837,0.37666 0.14871,0.26764 0.14871,0.48569 l -0.009,0.38657 v 1.65532 l -0.0595,0.24779 q 0.16854,0.14871 0.18837,0.19829 0.0496,0.0496 0.0793,0.31719 0.0992,0.0991 0.23788,0.31719 0.0694,0.0892 0.39649,0.24779 0.0793,0.0397 0.1388,0.15863 0.14871,0.2676 0.14871,0.64428 0,0.26762 -0.11897,0.44603 -0.0203,0.0298 -0.27754,0.25771 -0.29736,0.29736 -0.4956,0.44605 -0.25771,0.42621 -0.65419,0.9119 -0.0397,0.0496 -0.0397,0.0793 0,0.0397 0.53526,0.36674 0.0595,0.0397 0.0595,0.16854 0,0.0892 -0.0496,0.41629 -0.0113,0.0992 -0.0113,0.2082 0,0.17846 0.0298,0.27754 0.0297,0.11897 0.0297,0.12889 0,0.009 -0.0793,0.30725 -0.0113,0.0203 -0.0113,0.0297 0,0.0203 0.1388,0.26763 0.0397,0.0595 0.0397,0.10905 0,0 -0.0496,0.37666 -0.0203,0.12889 -0.0203,0.47578 0,0.22796 0.0203,0.34691 0.0298,0.2379 0.0298,0.30728 0,0.009 -0.0595,0.30727 l 0.0297,0.45595 -0.0595,0.38657 0.0397,0.446035 -0.0991,0.29736 0.0203,0.31719 q 0,0.0496 -0.0694,0.2379 -0.0297,0.0892 -0.0793,0.27754 l -0.25771,0.0793 v 0.33702 q -0.21812,0.18838 -0.31719,0.337 -0.1388,0.0595 -0.18838,0.0991 -0.18837,0.11897 -0.2379,0.11897 -0.0892,0 -0.24779,-0.16855 -0.0297,0.0694 -0.0396,0.0892 -0.0793,0.19829 -0.29737,0.19829 -0.009,0 -0.26762,-0.0496 -0.009,0 -0.0297,0 -0.009,0 -0.31719,0.0496 l -0.0203,-0.0203 -0.0298,-0.0694 q -0.0694,-0.22799 -0.25772,-0.48569 0.22798,-0.41631 0.64429,-0.50552 l 0.19829,-0.14872 q 0.51544,-0.28747 0.60464,-0.39648 0.0892,-0.10906 0.0892,-0.21812 0,-0.0793 -0.0397,-0.21811 0.13881,-0.20821 0.13881,-0.356825 0,-0.0397 -0.0397,-0.55507 l 0.0297,-0.41631 -0.0595,-0.26762 v -0.78306 l -0.0595,-0.53524 q 0.12889,-0.44606 0.12889,-0.46589 0,-0.0297 -0.10906,-0.30727 l 0.64427,-0.55507 -0.40637,-0.25771 q -0.19829,-0.95155 -0.19829,-0.96147 0,-0.0203 0.11897,-0.37665 0.009,-0.0496 0.009,-0.0793 0,-0.009 -0.0595,-0.2577 -0.0496,-0.24782 -0.0496,-0.4857 0,-0.16854 0.12888,-0.3271 0.0397,-0.0496 0.32709,-0.30726 l 0.15863,-0.24781 q 0.1388,-0.1388 0.1388,-0.18837 0,-0.0203 -0.16855,-0.20821 -0.10905,-0.11897 -0.26764,-0.33699 -0.4064,-0.53527 -0.4064,-0.76325 0,-0.0496 0.10906,-0.44604 -0.0991,-0.27753 -0.0991,-0.29736 0,-0.0496 0.0496,-0.337 0.0203,-0.0892 0.0203,-0.17846 l -0.0892,-0.94166 v -0.009 q 0,-0.10906 0.28747,-0.29734 0.28743,-0.17846 0.28743,-0.25773 0,-0.12889 -0.59471,-0.2082 l 0.2082,-0.20821 q -0.19828,-0.2577 -0.19828,-0.36671 0,-0.0793 0.0496,-0.11898 l 0.52533,-0.4064 q 0.0396,-0.0396 0.0396,-0.0793 0,-0.0496 -0.61453,-0.36676 l 0.0595,-0.4064 q -0.16855,-0.47578 -0.16855,-0.55507 0,-0.0991 0.009,-0.21812 h 0.2577 q 0.0203,-0.0793 0.0203,-0.12889 0,-0.0793 -0.0991,-0.18837 l -0.19829,-0.0297 q -0.0496,-0.23788 -0.0595,-0.31719 -0.0595,-0.35683 -0.1388,-0.55507 l -0.2082,-0.0397 -0.14872,-0.24779 q -0.2082,-0.0203 -0.36674,-0.17846 -0.31717,0.009 -0.39648,-0.0793 -0.14872,-0.15863 -0.16855,-0.40637 z"
       id="path76"
       aria-label="}" /><path
       style="font-size:14.1111px;font-family:Papyrus;-inkscape-font-specification:Papyrus;letter-spacing:-0.709083px;stroke-width:1.43857"
       d="m 70.246822,83.040495 q -0.128909,-0.11898 -0.198242,-0.30728 -0.247794,0.0203 -0.327089,0.0203 -0.564986,0.0297 -0.743411,0.11897 l -0.267618,0.1388 q -0.297368,0.0892 -0.337016,0.11897 -0.109036,0.0992 -0.336999,0.43612 -0.267634,0.42623 -0.267634,0.59473 l -0.0397,0.35685 -0.109036,0.27751 -0.01983,0.8128 q -0.09912,0.41631 -0.09912,0.46586 0,0.0892 0.06933,0.46589 0.109036,0.0991 0.148671,0.24779 l -0.198242,0.1388 q 0,0.1388 0,0.2082 0,0.0892 0,0.17846 -0.01014,0.11897 -0.01014,0.18837 0,0.15863 0.188328,0.37666 -0.148671,0.26764 -0.148671,0.48569 l 0.01014,0.38657 v 1.65532 l 0.05942,0.24779 q -0.1685,0.14871 -0.188328,0.19829 -0.04964,0.0496 -0.07927,0.31719 -0.09912,0.0991 -0.237884,0.31719 -0.06933,0.0892 -0.396485,0.24779 -0.07927,0.0397 -0.138824,0.15863 -0.14867,0.2676 -0.14867,0.64428 0,0.26762 0.118972,0.44603 0.01983,0.0298 0.277528,0.25771 0.297368,0.29736 0.495604,0.44605 0.257722,0.42621 0.654193,0.9119 0.0397,0.0496 0.0397,0.0793 0,0.0397 -0.535252,0.36674 -0.05942,0.0397 -0.05942,0.16854 0,0.0892 0.04964,0.41629 0.01014,0.0992 0.01014,0.2082 0,0.17846 -0.02979,0.27754 -0.02979,0.11897 -0.02979,0.12889 0,0.009 0.07927,0.30725 0.01014,0.0203 0.01014,0.0297 0,0.0203 -0.138824,0.26763 -0.0397,0.0595 -0.0397,0.10905 0,0 0.04948,0.37666 0.01983,0.12889 0.01983,0.47578 0,0.22796 -0.01983,0.34691 -0.02979,0.2379 -0.02979,0.30728 0,0.009 0.05942,0.30727 l -0.02979,0.45595 0.05942,0.38657 -0.0397,0.446035 0.09912,0.29736 -0.01983,0.31719 q 0,0.0496 0.06933,0.2379 0.02979,0.0892 0.07927,0.27754 l 0.257706,0.0793 v 0.33702 q 0.218071,0.18838 0.317192,0.337 0.138824,0.0595 0.188328,0.0991 0.188328,0.11897 0.237898,0.11897 0.08918,0 0.247794,-0.16855 0.02979,0.0694 0.0397,0.0892 0.07927,0.19829 0.297368,0.19829 0.01014,0 0.267618,-0.0496 0.01014,0 0.02979,0 0.01014,0 0.31719,0.0496 l 0.01983,-0.0203 0.02977,-0.0694 q 0.06933,-0.22799 0.257722,-0.48569 -0.227986,-0.41631 -0.644295,-0.50552 L 69.295212,101.051 q -0.515428,-0.28747 -0.604632,-0.39648 -0.08918,-0.10906 -0.08918,-0.21812 0,-0.0793 0.0397,-0.21811 -0.138824,-0.20821 -0.138824,-0.356825 0,-0.0397 0.0397,-0.55507 l -0.02979,-0.41631 0.05942,-0.26762 v -0.78306 l 0.05942,-0.53524 q -0.128887,-0.44606 -0.128887,-0.46589 0,-0.0297 0.109036,-0.30727 l -0.644295,-0.55507 0.406397,-0.25771 q 0.198242,-0.95155 0.198242,-0.96147 0,-0.0203 -0.118972,-0.37665 -0.01014,-0.0496 -0.01014,-0.0793 0,-0.009 0.05942,-0.2577 0.04964,-0.24782 0.04964,-0.4857 0,-0.16854 -0.128886,-0.3271 -0.0397,-0.0496 -0.327089,-0.30726 l -0.158607,-0.24781 q -0.138824,-0.1388 -0.138824,-0.18837 0,-0.0203 0.168499,-0.20821 0.109036,-0.11897 0.267632,-0.33699 0.406397,-0.53527 0.406397,-0.76325 0,-0.0496 -0.109036,-0.44604 0.09912,-0.27753 0.09912,-0.29736 0,-0.0496 -0.04964,-0.337 -0.01983,-0.0892 -0.01983,-0.17846 l 0.08918,-0.94166 v -0.009 q 0,-0.10906 -0.287456,-0.29734 -0.287442,-0.17846 -0.287442,-0.25773 0,-0.12889 0.59472,-0.2082 l -0.208156,-0.20821 q 0.198242,-0.2577 0.198242,-0.36671 0,-0.0793 -0.04948,-0.11898 l -0.525337,-0.4064 q -0.0397,-0.0396 -0.0397,-0.0793 0,-0.0496 0.614544,-0.36676 l -0.05942,-0.4064 q 0.168499,-0.47578 0.168499,-0.55507 0,-0.0991 -0.01014,-0.21812 h -0.257721 q -0.01983,-0.0793 -0.01983,-0.12889 0,-0.0793 0.09912,-0.18837 l 0.198242,-0.0297 q 0.04964,-0.23788 0.05942,-0.31719 0.05942,-0.35683 0.138824,-0.55507 l 0.208156,-0.0397 0.148671,-0.24779 q 0.208156,-0.0203 0.36675,-0.17846 0.317177,0.009 0.396471,-0.0793 0.148693,-0.15863 0.168522,-0.40637 z"
       id="path77"
       aria-label="}" /><g
       id="text1"
       style="font-size:23.0197px;stroke-width:1.91831"
       aria-label="WebS:py"
       transform="matrix(1.0264298,0,0,1.0264298,-3.4903748,-2.6647372)"><path
         style="font-family:'Eccentric Std';-inkscape-font-specification:'Eccentric Std';fill:#008080"
         d="m 78.172968,117.6506 v -0.87475 c -0.230197,-0.023 -0.552473,-0.023 -0.552473,-0.25322 0,-0.29925 0.322276,-1.45024 0.506434,-2.16385 l 0.782669,-3.13068 h 0.04604 l 0.78267,3.13068 c 0.184157,0.71361 0.506433,1.8646 0.506433,2.16385 0,0.2302 -0.322276,0.2302 -0.552473,0.25322 v 0.87475 h 2.693305 v -0.87475 c -0.299256,-0.046 -0.552473,-0.046 -0.552473,-0.29926 0,-0.2302 0.276237,-1.35816 0.460394,-2.11781 l 2.486128,-11.02644 c 0.207177,-0.92078 0.230197,-1.0589 1.035886,-1.10494 v -0.87475 h -2.693305 v 0.87475 c 0.230197,0.046 0.621532,0.046 0.621532,0.32227 0,0.32228 -0.230197,1.26609 -0.391335,2.00272 l -2.324989,10.88832 h -0.04604 l -1.49628,-6.07721 1.726477,-6.33041 c 0.184158,-0.71361 0.253217,-0.71361 0.75965,-0.80569 v -0.87475 h -2.509147 v 0.87475 c 0.253217,0.046 0.644552,0.1151 0.644552,0.39133 0,0.29926 -0.230197,1.01287 -0.437375,1.84158 l -0.71361,2.99256 h -0.04604 l -0.71361,-2.99256 c -0.207178,-0.82871 -0.437375,-1.54232 -0.437375,-1.84158 0,-0.27623 0.391335,-0.34529 0.644552,-0.39133 v -0.87475 h -2.509147 v 0.87475 c 0.506433,0.0921 0.575492,0.0921 0.75965,0.80569 l 1.726477,6.33041 -1.49628,6.07721 h -0.04604 l -2.324989,-10.88832 c -0.161138,-0.73663 -0.391335,-1.68044 -0.391335,-2.00272 0,-0.27623 0.391335,-0.27623 0.621532,-0.32227 v -0.87475 h -2.693305 v 0.87475 c 0.78267,0.023 0.828709,0.20718 1.035886,1.10494 l 2.486128,11.02644 c 0.184158,0.75965 0.460394,1.88761 0.460394,2.11781 0,0.25322 -0.253217,0.25322 -0.552473,0.29926 v 0.87475 z m 12.131398,0 c 0.414354,0 0.966827,0 1.5193,0.046 0.575492,0.046 1.127965,0.11509 1.565339,0.23019 l 0.82871,-1.79553 -0.690591,-0.4604 c -0.391335,0.48342 -0.552473,0.96683 -1.611379,0.96683 h -2.371029 v -11.27965 h 2.209891 c 0.644551,0 0.73663,0.29925 0.805689,0.64455 h 0.690591 v -2.30197 h -0.690591 c -0.02302,0.39133 -0.09208,0.64455 -0.851729,0.64455 h -2.163851 v -1.97969 h 1.703457 c 0.759651,0 0.943808,0.29925 1.312123,0.59851 l 0.690591,-0.39134 -0.828709,-1.56534 c -0.828709,0.3453 -1.726477,0.3453 -2.27895,0.3453 h -2.785384 v 0.87475 c 1.035887,0.0921 1.035887,0.2302 1.035887,0.89777 v 12.75291 c 0,0.66757 0,0.78267 -1.035887,0.89777 v 0.87475 z m 7.020992,-13.55861 v -1.72647 h 2.025733 c 0.989849,0 1.450239,0.16113 1.450239,0.80569 0,0.66757 -0.50643,0.92078 -1.450239,0.92078 z m 0,1.01287 c 2.417068,0 3.107662,0 3.959392,0.98985 0.71361,0.85173 1.08192,2.18687 1.08192,4.00543 0,4.64997 -2.27895,6.23833 -5.041312,6.53759 z m -0.690591,12.54574 c 3.199738,0 6.951953,-1.24307 6.951953,-7.55046 0,-3.77524 -1.61138,-5.06434 -2.44009,-5.61681 0.46039,-0.16114 0.87475,-0.59851 0.87475,-1.38118 0,-1.33515 -1.12797,-1.7495 -2.877466,-1.7495 h -3.913349 v 0.87475 c 0.943808,0.0921 0.943808,0.2302 0.943808,0.89777 v 12.75291 c 0,0.66757 0,0.78267 -0.943808,0.89777 v 0.87475 z m 12.660843,-14.73261 -0.82871,-2.09479 h -0.69059 l -0.41435,0.29925 c -0.18416,-0.023 -0.3453,-0.046 -0.52945,-0.046 -0.98985,0 -1.61138,0.59852 -1.61138,1.6344 0,1.15099 1.03588,2.48613 2.62424,5.47869 1.08193,1.95667 2.23291,4.30468 2.23291,6.3074 0,1.2891 -0.92078,2.32499 -2.14083,2.32499 -1.45024,0 -1.95667,-1.05891 -2.37103,-1.9797 l -0.73663,0.27624 0.32228,2.53217 h 0.59851 l 0.41435,-0.25322 c 0.43738,0.27624 1.15099,0.52945 1.77252,0.52945 1.7495,0 3.29182,-1.2891 3.29182,-3.61409 0,-2.23291 -1.35816,-4.88018 -2.46311,-6.88289 -1.42722,-2.62425 -2.39405,-3.77523 -2.39405,-4.58092 0,-0.3453 0.2302,-0.66757 0.66757,-0.66757 0.43738,0 0.73663,0.34529 1.49628,1.01287 z"
         id="path5" /><path
         style="font-family:'Eccentric Std';-inkscape-font-specification:'Eccentric Std';fill:#00ff00"
         d="m 114.31391,111.59642 c 0.50644,0 0.75965,-0.5755 0.75965,-1.08193 0,-0.52945 -0.23019,-1.15099 -0.75965,-1.15099 -0.52945,0 -0.75965,0.62154 -0.75965,1.15099 0,0.50643 0.25322,1.08193 0.75965,1.08193 z m 0,6.33041 c 0.50644,0 0.75965,-0.57549 0.75965,-1.08192 0,-0.52946 -0.23019,-1.15099 -0.75965,-1.15099 -0.52945,0 -0.75965,0.62153 -0.75965,1.15099 0,0.50643 0.25322,1.08192 0.75965,1.08192 z"
         id="path6" /><path
         style="font-family:'Eccentric Std';-inkscape-font-specification:'Eccentric Std';fill:#00ffff"
         d="m 119.58544,104.09199 v -1.72647 h 2.09479 c 0.75965,0 1.38118,0.25321 1.38118,0.85173 0,0.66757 -0.46039,0.87474 -1.38118,0.87474 z m 0,1.01287 h 2.04875 c 1.84157,0 2.64726,-0.64455 2.64726,-1.8646 0,-1.08192 -0.59851,-1.88761 -2.60122,-1.88761 h -4.18959 v 0.87475 c 0.94381,0.0921 0.94381,0.2302 0.94381,0.89777 v 12.75291 c 0,0.66757 0,0.78267 -0.94381,0.89777 v 0.87475 h 3.0386 v -0.87475 c -0.9438,-0.1151 -0.9438,-0.27624 -0.9438,-0.89777 z m 10.51998,12.54574 v -0.87475 c -0.94381,-0.0921 -0.94381,-0.2302 -0.94381,-0.89777 v -11.0955 l 1.97969,-1.93365 c 0.3453,-0.27624 0.4604,-0.52945 0.92079,-0.62153 v -0.87475 h -2.62425 v 0.87475 c 0.25322,0.023 0.75965,0.023 0.75965,0.18416 0,0.13811 -0.23019,0.29925 -0.48341,0.52945 l -1.10494,0.98985 -1.01287,-1.01287 c -0.13812,-0.13812 -0.39134,-0.36832 -0.39134,-0.48341 0,-0.16114 0.32228,-0.16114 0.64456,-0.20718 v -0.87475 h -2.73935 v 0.87475 c 0.55247,0.046 0.78267,0.32227 1.05891,0.59851 l 1.84157,1.95667 v 11.0955 c 0,0.66757 0,0.80569 -0.9438,0.89777 v 0.87475 z"
         id="path7" /></g><g
       id="g27"
       inkscape:export-filename="gor.js.png"
       inkscape:export-xdpi="96"
       inkscape:export-ydpi="96"
       transform="translate(16.650191,-8.4281189)"><g
         id="g26"><path
           id="rect18"
           style="fill:#f2d300;stroke-width:0.213194"
           d="m 47.044079,241.325 h 82.375141 v 32.64283 H 47.044079 Z" /><g
           id="g25"
           transform="translate(-3.1750001,26.458334)"><g
             id="g24"
             transform="matrix(0.77780435,0,0,0.77780435,10.053414,84.653676)"><path
               id="rect19"
               style="fill:#ffff00;stroke-width:0.261756"
               d="m 114.05876,179.63948 h 6.21613 v 22.89768 h -6.21613 z" /><path
               style="fill:#f2f2f2;stroke-width:0.264583"
               d="m 85.534353,205.20659 -5.310338,0.18965 -4.74137,-0.75862 -2.939651,-1.23276 -3.508615,-2.56034 c 0,0 -2.086205,-6.25861 -2.086205,-6.63792 0,-0.37931 1.517239,-5.59482 1.517239,-5.59482 0,0 2.465515,-2.74999 2.749997,-3.1293 0.28448,-0.37931 2.086203,-1.51724 2.465512,-1.61207 0.37931,-0.0948 4.267235,-1.0431 4.267235,-1.0431 0,0 0.853448,-3.31896 0.853448,-3.69827 0,-0.37931 2.275858,-4.17241 2.275858,-4.17241 0,0 5.784474,-1.0431 6.543093,-0.85345 0.758621,0.18966 3.698272,2.27586 4.55172,2.84483 0.853445,0.56896 1.801719,4.93102 1.706893,5.49999 -0.09483,0.56896 -2.465515,6.73275 -2.560341,7.11206 -0.09483,0.37931 -5.025856,1.70689 -5.025856,1.70689 0,0 -0.284483,4.26724 -0.284483,5.40517 0,1.13793 -0.474136,8.53447 -0.474136,8.53447 z"
               id="path19" /><path
               style="fill:#cccccc;stroke-width:0.264583"
               d="m 84.37928,198.49703 v 6.7128 h -9.888759 l -3.464677,-3.46467 c 4.789926,1.51461 9.136885,-0.36686 13.353436,-3.24813 z"
               id="path20"
               sodipodi:nodetypes="ccccc" /><path
               d="m 101.48488,206.17857 c 0.097,-0.097 0.17639,-5.97806 0.17639,-13.069 0,-14.85835 -0.0156,-14.97953 -2.32512,-18.03152 -5.148015,-6.80311 -15.636259,-6.55094 -20.308629,0.48828 -1.03354,1.55709 -1.97251,4.11342 -1.97251,5.3701 0,0.66618 -0.12305,0.75561 -1.44744,1.052 -5.21283,1.16658 -9.08369,5.60106 -9.57439,10.9685 -0.52965,5.79353 3.46354,11.53871 9.0269,12.9874 1.31606,0.3427 3.61765,0.41063 13.912676,0.41063 6.784652,0 12.415103,-0.0794 12.512123,-0.17639 z m -27.397989,-2.78174 c -0.83209,-0.38996 -2.09153,-1.25027 -2.79875,-1.91179 -1.29327,-1.2097 -2.83795,-3.63499 -2.51856,-3.95437 0.0944,-0.0944 1.19349,-0.1735 2.44255,-0.1759 1.8609,-0.004 2.45715,-0.11106 3.30179,-0.59531 1.20241,-0.68935 2.05832,-2.1076 1.95339,-3.23679 -0.0633,-0.68141 -0.19401,-0.80538 -0.92342,-0.8759 -0.74911,-0.0724 -0.89453,0.0252 -1.22882,0.82532 -0.61453,1.47077 -1.2861,1.77037 -3.96831,1.77037 h -2.35717 l 0.12319,-1.91963 c 0.17278,-2.69222 1.15821,-4.78523 3.14543,-6.68071 1.76386,-1.68244 3.25252,-2.43009 5.58728,-2.80609 0.89433,-0.14403 1.70671,-0.31171 1.80528,-0.37263 0.0986,-0.0609 0.25422,-0.79907 0.34589,-1.64033 0.35458,-3.25408 1.21813,-4.88973 3.07748,-5.82905 3.14853,-1.59058 7.693606,0.26433 9.137083,3.72898 0.99825,2.39602 0.294011,5.64741 -1.656917,7.64981 -0.97597,1.00172 -3.235196,2.04882 -4.420536,2.04882 -1.41983,0 -1.46418,0.23771 -1.46418,7.84785 v 7.01631 l -4.03489,-0.09 c -3.72205,-0.083 -4.15221,-0.14495 -5.54781,-0.79899 z m 0.26341,-15.44541 c 0.67329,-0.47159 0.79242,-1.64297 0.19057,-1.87392 -1.15829,-0.44448 -2.94068,1.05473 -2.24726,1.89024 0.42449,0.51149 1.31321,0.50443 2.05669,-0.0163 z m 9.89953,-5.34281 c 0.95825,-1.11574 0.73229,-2.52784 -0.47815,-2.98805 -1.32416,-0.50345 -2.48334,0.3065 -2.48334,1.73517 0,1.49021 2.02271,2.34593 2.96149,1.25288 z"
               style="fill:#000000"
               id="path21" /><path
               id="rect21"
               style="fill:#ffffff;stroke-width:0.260314"
               d="m 113.1794,178.46732 h 7.79552 v 24.59446 h -7.79552 z" /><path
               id="rect22"
               style="fill:#aa8800;stroke-width:0.244812"
               d="m 116.22089,180.38054 h 2.70266 v 20.74871 h -2.70266 z" /><path
               id="path22"
               style="fill:#000000;stroke-width:0.0730434"
               d="m 115.98411,189.27278 a 0.54049839,0.44458672 0 0 0 -0.54049,0.44459 0.54049839,0.44458672 0 0 0 0.54049,0.44456 0.54049839,0.44458672 0 0 0 0.43823,-0.18605 h 0.14 c 0.16016,0 0.28912,-0.10603 0.28912,-0.23782 0,-0.13174 -0.12896,-0.23781 -0.28912,-0.23781 h -0.10668 a 0.54049839,0.44458672 0 0 0 -0.4716,-0.22747 z" /><path
               style="font-size:1.76139px;font-family:'OCR A Std';-inkscape-font-specification:'OCR A Std';letter-spacing:1.14559px;stroke-width:0.146783"
               d="m 102.1495,205.74848 c 0,0.11097 0.0282,0.15324 0.11625,0.22722 0.0881,0.074 0.1233,0.0881 0.23075,0.0881 h 0.13386 c 0.10745,0 0.14267,-0.0141 0.23074,-0.0881 0.0881,-0.074 0.11626,-0.11625 0.11626,-0.22722 v -0.31881 c 0,-0.11273 -0.0229,-0.15148 -0.10745,-0.22018 -0.0828,-0.0687 -0.12153,-0.0951 -0.23955,-0.0951 h -0.13386 c -0.11802,0 -0.15677,0.0264 -0.23955,0.0951 -0.0846,0.0687 -0.10745,0.10745 -0.10745,0.22018 z m 0.1691,-0.31881 c 0,-0.0352 0.0123,-0.0581 0.0616,-0.1004 0.037,-0.0317 0.0634,-0.0458 0.11626,-0.0458 h 0.13386 c 0.0528,0 0.0793,0.0141 0.11625,0.0458 0.0493,0.0423 0.0617,0.0652 0.0617,0.1004 v 0.31881 c 0,0.0352 -0.0123,0.0581 -0.0617,0.1004 -0.037,0.0317 -0.0634,0.0458 -0.11625,0.0458 h -0.13386 c -0.0528,0 -0.0793,-0.0141 -0.11626,-0.0458 -0.0493,-0.0423 -0.0616,-0.0652 -0.0616,-0.1004 z m 3.07255,0.0863 c 0,-0.11977 -0.009,-0.16733 -0.10745,-0.24483 l -0.10216,-0.0793 c -0.0458,-0.0352 -0.1004,-0.0775 -0.14091,-0.0775 h -0.11625 c -0.0476,0 -0.11449,0.0634 -0.15853,0.10216 l -0.0335,0.0299 v -0.0211 c 0,-0.0564 -0.0159,-0.11096 -0.0845,-0.11096 -0.0775,0 -0.0846,0.0652 -0.0846,0.12506 v 1.0674 c 0,0.0581 0.0123,0.11625 0.0846,0.11625 0.0722,0 0.0845,-0.0581 0.0845,-0.11625 v -0.33995 l 0.0335,0.0317 c 0.0546,0.0511 0.0898,0.10039 0.16557,0.10039 h 0.11449 c 0.0458,0 0.1004,-0.0475 0.13563,-0.0757 l 0.10216,-0.081 c 0.0986,-0.0775 0.10745,-0.1233 0.10745,-0.24483 z m -0.1691,0.20433 c 0,0.0317 -0.009,0.0511 -0.0352,0.074 l -0.12682,0.10569 c -0.0159,0.0141 -0.0352,0.0299 -0.0581,0.0299 h -0.044 c -0.0211,0 -0.0476,-0.0229 -0.0722,-0.0476 l -0.12858,-0.12153 c -0.0176,-0.0159 -0.0247,-0.0476 -0.0247,-0.0722 v -0.16557 c 0,-0.037 0.0123,-0.0564 0.0476,-0.0898 l 0.10569,-0.1004 c 0.0176,-0.0176 0.0475,-0.0493 0.0722,-0.0493 h 0.044 c 0.0229,0 0.0423,0.0159 0.0581,0.0299 l 0.12682,0.10569 c 0.0264,0.0229 0.0352,0.0423 0.0352,0.074 z m 2.46663,0.34347 c 0.0493,0 0.11625,-0.0106 0.11625,-0.0846 0,-0.0722 -0.0599,-0.0846 -0.11625,-0.0846 h -0.36284 c -0.0564,0 -0.0898,-0.007 -0.11273,-0.0317 l -0.0423,-0.0458 c -0.0123,-0.0123 -0.0246,-0.0335 -0.0246,-0.0493 v -0.0564 h 0.5425 c 0.1004,0 0.11625,-0.0282 0.11625,-0.12506 v -0.13563 c 0,-0.0933 -0.0106,-0.15852 -0.0881,-0.22017 l -0.0687,-0.0546 c -0.0652,-0.0529 -0.10392,-0.0616 -0.18671,-0.0616 h -0.155 c -0.0687,0 -0.10744,0.002 -0.18671,0.0704 l -0.0599,0.0511 c -0.0705,0.0599 -0.0828,0.11273 -0.0828,0.20256 v 0.32586 c 0,0.0916 0.0194,0.13034 0.0863,0.19023 l 0.0722,0.0634 c 0.0528,0.0458 0.081,0.0458 0.15148,0.0458 z m -0.5425,-0.64115 c 0,-0.0493 0.0141,-0.0616 0.0352,-0.0775 l 0.0581,-0.0423 c 0.0282,-0.0194 0.0546,-0.0194 0.0863,-0.0194 h 0.14267 c 0.0264,0 0.0599,0.002 0.081,0.0211 l 0.0652,0.0564 c 0.0229,0.0211 0.0211,0.0476 0.0211,0.0793 v 0.10217 h -0.48966 z m 2.6639,-0.1233 c 0.0176,-0.0106 0.0352,-0.0159 0.0528,-0.0159 h 0.0564 c 0.10216,0 0.11097,0.0405 0.11449,0.14443 l 0.0176,0.52138 c 0.002,0.0564 0.0159,0.11449 0.0846,0.11449 0.0757,0 0.0845,-0.0669 0.0828,-0.12682 l -0.0176,-0.53194 c -0.004,-0.0916 0,-0.16381 -0.0757,-0.22898 -0.0511,-0.044 -0.0916,-0.0616 -0.15676,-0.0616 h -0.12506 c -0.0546,0 -0.10216,0.0282 -0.1462,0.0564 l -0.13739,0.0898 v -0.004 -0.0194 c 0,-0.0599 -0.009,-0.12329 -0.0845,-0.12329 -0.0775,0 -0.0845,0.0634 -0.0845,0.12506 v 0.70807 c 0,0.0581 0.0123,0.11626 0.0845,0.11626 0.0722,0 0.0845,-0.0581 0.0845,-0.11626 v -0.49142 z m 2.54061,-0.0159 c 0.0458,0 0.0757,0.004 0.10392,0.0335 0.0211,0.0229 0.0405,0.0352 0.0722,0.0352 0.0458,0 0.0863,-0.037 0.0863,-0.0845 0,-0.0476 -0.0352,-0.0687 -0.0669,-0.0951 -0.0634,-0.0528 -0.10216,-0.0581 -0.19552,-0.0581 h -0.28887 c -0.12682,0 -0.2325,0.081 -0.2325,0.21489 0,0.1092 0.0546,0.16381 0.14796,0.20608 l 0.39807,0.18142 c 0.0388,0.0176 0.0881,0.044 0.0881,0.0846 0,0.0986 -0.081,0.0933 -0.14091,0.0933 h -0.22898 c -0.0528,0 -0.10568,-0.004 -0.13563,-0.037 -0.0194,-0.0211 -0.0387,-0.0299 -0.0652,-0.0299 -0.0476,0 -0.0881,0.037 -0.0881,0.0846 0,0.0423 0.0458,0.074 0.0775,0.0986 0.0634,0.0493 0.1233,0.0529 0.21137,0.0529 h 0.26068 c 0.16205,0 0.2783,-0.081 0.2783,-0.25188 0,-0.12154 -0.0564,-0.19023 -0.16557,-0.23955 l -0.42273,-0.19199 c -0.0247,-0.0106 -0.0458,-0.0211 -0.0458,-0.0493 0,-0.0546 0.0599,-0.0476 0.0951,-0.0476 z m 1.86776,0.46501 c 0,0.11097 0.0282,0.15324 0.11625,0.22722 0.0881,0.074 0.1233,0.0881 0.23074,0.0881 h 0.13387 c 0.10744,0 0.14267,-0.0141 0.23074,-0.0881 0.0881,-0.074 0.11625,-0.11625 0.11625,-0.22722 v -0.31881 c 0,-0.11273 -0.0229,-0.15148 -0.10744,-0.22018 -0.0828,-0.0687 -0.12154,-0.0951 -0.23955,-0.0951 h -0.13387 c -0.11801,0 -0.15676,0.0264 -0.23954,0.0951 -0.0846,0.0687 -0.10745,0.10745 -0.10745,0.22018 z m 0.16909,-0.31881 c 0,-0.0352 0.0123,-0.0581 0.0617,-0.1004 0.037,-0.0317 0.0634,-0.0458 0.11625,-0.0458 h 0.13387 c 0.0528,0 0.0793,0.0141 0.11625,0.0458 0.0493,0.0423 0.0617,0.0652 0.0617,0.1004 v 0.31881 c 0,0.0352 -0.0123,0.0581 -0.0617,0.1004 -0.037,0.0317 -0.0634,0.0458 -0.11625,0.0458 h -0.13387 c -0.0528,0 -0.0793,-0.0141 -0.11625,-0.0458 -0.0493,-0.0423 -0.0617,-0.0652 -0.0617,-0.1004 z m 3.07255,-0.19904 c 0,-0.0581 -0.0123,-0.11625 -0.0845,-0.11625 -0.0722,0 -0.0846,0.0581 -0.0846,0.11625 v 0.49143 l -0.24836,0.15676 c -0.0159,0.0106 -0.0335,0.0159 -0.0528,0.0159 h -0.0564 c -0.0405,0 -0.0846,-0.0106 -0.0986,-0.0352 -0.0141,-0.0247 -0.0159,-0.0705 -0.0176,-0.10921 l -0.0176,-0.51961 c -0.002,-0.0546 -0.0106,-0.11625 -0.0828,-0.11625 -0.0775,0 -0.0863,0.0652 -0.0846,0.12682 l 0.0176,0.53194 c 0.004,0.0916 0.002,0.16381 0.0775,0.22898 0.0564,0.0476 0.10921,0.0617 0.15677,0.0617 h 0.12506 c 0.0458,0 0.0916,-0.0211 0.14619,-0.0564 l 0.13739,-0.0898 v 0.0282 c 0,0.0581 0.0123,0.11802 0.0845,0.11802 0.0898,0 0.0828,-0.0863 0.0828,-0.12506 z m 1.58594,0.71688 c 0,0.0581 0.0123,0.11626 0.0845,0.11626 0.0722,0 0.0845,-0.0581 0.0845,-0.11626 v -0.42801 l 0.23603,-0.19552 c 0.0299,-0.0247 0.0528,-0.0405 0.0846,-0.0405 h 0.0493 c 0.0405,0 0.081,0 0.10216,0.0299 0.0176,0.0247 0.0176,0.0458 0.0176,0.074 0,0.0546 0.0247,0.10392 0.0863,0.10392 0.0722,0 0.0828,-0.0599 0.0828,-0.11801 0,-0.0775 -0.0194,-0.13563 -0.0757,-0.19199 -0.0458,-0.0458 -0.1004,-0.0669 -0.16557,-0.0669 h -0.13563 c -0.0528,0 -0.10216,0.0335 -0.14971,0.0722 l -0.13211,0.10921 v -0.0687 c 0,-0.0564 -0.0176,-0.11273 -0.0845,-0.11273 -0.0775,0 -0.0845,0.0634 -0.0845,0.12506 z m 2.41379,-0.27653 c 0,0.10392 0.0194,0.155 0.1004,0.22193 l 0.12506,0.10392 c 0.0793,0.0652 0.11977,0.0669 0.21841,0.0669 h 0.26773 c 0.0564,0 0.11625,-0.0123 0.11625,-0.0846 0,-0.074 -0.0669,-0.0846 -0.11625,-0.0846 h -0.29767 c -0.0335,0 -0.0669,-0.0176 -0.0969,-0.0423 l -0.10216,-0.0863 c -0.0264,-0.0211 -0.0458,-0.0387 -0.0458,-0.0722 v -0.2096 c 0,-0.0335 0.0194,-0.0511 0.0458,-0.0722 l 0.10216,-0.0863 c 0.0299,-0.0247 0.0634,-0.0423 0.0969,-0.0423 h 0.29767 c 0.0493,0 0.11625,-0.0106 0.11625,-0.0846 0,-0.0722 -0.0599,-0.0845 -0.11625,-0.0845 h -0.26773 c -0.0986,0 -0.13915,0.002 -0.21841,0.0669 l -0.12506,0.10392 c -0.081,0.0669 -0.1004,0.11802 -0.1004,0.22194 z m 3.12539,0.39279 c 0.0493,0 0.11625,-0.0106 0.11625,-0.0846 0,-0.0722 -0.0599,-0.0846 -0.11625,-0.0846 h -0.36285 c -0.0564,0 -0.0898,-0.007 -0.11273,-0.0317 l -0.0423,-0.0458 c -0.0123,-0.0123 -0.0247,-0.0335 -0.0247,-0.0493 v -0.0564 h 0.54251 c 0.1004,0 0.11625,-0.0282 0.11625,-0.12506 v -0.13563 c 0,-0.0933 -0.0106,-0.15852 -0.0881,-0.22017 l -0.0687,-0.0546 c -0.0652,-0.0529 -0.10392,-0.0616 -0.18671,-0.0616 h -0.155 c -0.0687,0 -0.10745,0.002 -0.18671,0.0704 l -0.0599,0.0511 c -0.0704,0.0599 -0.0828,0.11273 -0.0828,0.20256 v 0.32586 c 0,0.0916 0.0194,0.13034 0.0863,0.19023 l 0.0722,0.0634 c 0.0529,0.0458 0.081,0.0458 0.15148,0.0458 z m -0.54251,-0.64115 c 0,-0.0493 0.0141,-0.0616 0.0352,-0.0775 l 0.0581,-0.0423 c 0.0282,-0.0194 0.0546,-0.0194 0.0863,-0.0194 h 0.14268 c 0.0264,0 0.0599,0.002 0.081,0.0211 l 0.0652,0.0564 c 0.0229,0.0211 0.0211,0.0476 0.0211,0.0793 v 0.10217 h -0.48967 z m 12.39833,0.0951 c 0,-0.0581 -0.0123,-0.11802 -0.0846,-0.11802 -0.0722,0 -0.0845,0.0599 -0.0845,0.11802 v 0.155 l -0.0916,0.15676 -0.0528,-0.15676 -0.0176,-0.43683 c -0.002,-0.0581 -0.0123,-0.12153 -0.0846,-0.12153 -0.074,0 -0.0846,0.0634 -0.0828,0.12153 l 0.0176,0.47029 0.0828,0.25012 c 0.0176,0.0511 0.0264,0.10745 0.0863,0.10745 h 0.0652 c 0.0299,0 0.0546,-0.0317 0.0705,-0.0546 l 0.0916,-0.13739 0.0916,0.13739 c 0.0159,0.0229 0.0405,0.0546 0.0705,0.0546 h 0.0652 c 0.0599,0 0.0687,-0.0564 0.0863,-0.10745 l 0.0828,-0.25012 0.0176,-0.47029 c 0.002,-0.0581 -0.009,-0.12153 -0.0828,-0.12153 -0.0722,0 -0.0828,0.0634 -0.0845,0.12153 l -0.0176,0.43683 -0.0528,0.15676 -0.0916,-0.15676 z m 2.62692,0.54603 c 0.0493,0 0.11625,-0.0106 0.11625,-0.0846 0,-0.0722 -0.0599,-0.0846 -0.11625,-0.0846 h -0.36285 c -0.0564,0 -0.0898,-0.007 -0.11273,-0.0317 l -0.0423,-0.0458 c -0.0123,-0.0123 -0.0247,-0.0335 -0.0247,-0.0493 v -0.0564 h 0.54251 c 0.1004,0 0.11625,-0.0282 0.11625,-0.12506 v -0.13563 c 0,-0.0933 -0.0106,-0.15852 -0.0881,-0.22017 l -0.0687,-0.0546 c -0.0652,-0.0529 -0.10393,-0.0616 -0.18671,-0.0616 h -0.155 c -0.0687,0 -0.10745,0.002 -0.18671,0.0704 l -0.0599,0.0511 c -0.0704,0.0599 -0.0828,0.11273 -0.0828,0.20256 v 0.32586 c 0,0.0916 0.0194,0.13034 0.0863,0.19023 l 0.0722,0.0634 c 0.0528,0.0458 0.081,0.0458 0.15148,0.0458 z m -0.54251,-0.64115 c 0,-0.0493 0.0141,-0.0616 0.0352,-0.0775 l 0.0581,-0.0423 c 0.0282,-0.0194 0.0546,-0.0194 0.0863,-0.0194 h 0.14267 c 0.0264,0 0.0599,0.002 0.081,0.0211 l 0.0652,0.0564 c 0.0229,0.0211 0.0211,0.0476 0.0211,0.0793 v 0.10217 h -0.48967 z m 2.41379,-0.54075 c 0,-0.0581 -0.0123,-0.11625 -0.0846,-0.11625 -0.0722,0 -0.0846,0.0581 -0.0846,0.11625 v 1.06388 c 0,0.0581 0.0123,0.11802 0.0846,0.11802 0.0669,0 0.0846,-0.0581 0.0846,-0.11273 v -0.0106 l 0.0387,0.037 c 0.0476,0.044 0.0951,0.0863 0.16381,0.0863 h 0.17438 c 0.0423,0 0.0916,-0.0264 0.1321,-0.0599 l 0.0581,-0.0493 c 0.0669,-0.0581 0.0916,-0.10568 0.0916,-0.19551 v -0.33995 c 0,-0.0898 -0.0247,-0.13739 -0.0916,-0.19552 l -0.0581,-0.0493 c -0.0423,-0.0352 -0.081,-0.0599 -0.12506,-0.0599 h -0.18671 c -0.0775,0 -0.11096,0.037 -0.16733,0.0933 l -0.0299,0.0299 z m 0,0.62706 c 0,-0.0511 0.0229,-0.0775 0.0511,-0.1004 l 0.1092,-0.0951 c 0.0194,-0.0176 0.0476,-0.0299 0.0705,-0.0299 h 0.11801 c 0.0176,0 0.0299,0.005 0.0405,0.0141 l 0.0775,0.0599 c 0.0141,0.0106 0.0229,0.037 0.0229,0.0704 v 0.29944 c 0,0.0335 -0.002,0.074 -0.0211,0.0898 l -0.074,0.0616 c -0.0123,0.0106 -0.0282,0.0159 -0.0528,0.0159 h -0.12858 c -0.0176,0 -0.044,-0.0247 -0.0652,-0.0423 l -0.0969,-0.0828 c -0.044,-0.037 -0.0511,-0.0581 -0.0511,-0.11272 z m 2.79072,-0.22546 c 0.0458,0 0.0757,0.004 0.10393,0.0335 0.0211,0.0229 0.0405,0.0352 0.0722,0.0352 0.0458,0 0.0863,-0.037 0.0863,-0.0845 0,-0.0476 -0.0352,-0.0687 -0.0669,-0.0951 -0.0634,-0.0528 -0.10216,-0.0581 -0.19552,-0.0581 h -0.28886 c -0.12682,0 -0.23251,0.081 -0.23251,0.21489 0,0.1092 0.0546,0.16381 0.14796,0.20608 l 0.39807,0.18142 c 0.0387,0.0176 0.0881,0.044 0.0881,0.0846 0,0.0986 -0.081,0.0933 -0.14091,0.0933 h -0.22898 c -0.0528,0 -0.10568,-0.004 -0.13563,-0.037 -0.0194,-0.0211 -0.0388,-0.0299 -0.0652,-0.0299 -0.0476,0 -0.0881,0.037 -0.0881,0.0846 0,0.0423 0.0458,0.074 0.0775,0.0986 0.0634,0.0493 0.1233,0.0529 0.21137,0.0529 h 0.26069 c 0.16204,0 0.2783,-0.081 0.2783,-0.25188 0,-0.12154 -0.0564,-0.19023 -0.16557,-0.23955 l -0.42274,-0.19199 c -0.0247,-0.0106 -0.0458,-0.0211 -0.0458,-0.0493 0,-0.0546 0.0599,-0.0476 0.0951,-0.0476 z m 2.20771,0 h 0.28359 c 0.0493,0 0.11625,-0.0106 0.11625,-0.0846 0,-0.0722 -0.0599,-0.0845 -0.11625,-0.0845 h -0.28359 v -0.17262 c 0,-0.0581 -0.0123,-0.11625 -0.0845,-0.11625 -0.0722,0 -0.0845,0.0581 -0.0845,0.11625 v 0.17262 h -0.0546 c -0.0564,0 -0.11626,0.0123 -0.11626,0.0845 0,0.074 0.0669,0.0846 0.11626,0.0846 h 0.0546 v 0.45972 c 0,0.0916 -0.004,0.16381 0.0616,0.23603 0.0599,0.0652 0.13386,0.0846 0.21841,0.0846 h 0.0863 c 0.0898,0 0.17085,-0.0123 0.2325,-0.0863 0.0282,-0.0335 0.0581,-0.0934 0.0581,-0.14091 0,-0.0476 -0.0387,-0.0845 -0.0863,-0.0845 -0.0423,0 -0.074,0.0282 -0.0846,0.0687 -0.0176,0.0687 -0.0493,0.074 -0.11801,0.074 h -0.0863 c -0.11625,0 -0.11273,-0.0546 -0.11273,-0.14972 z m 2.56703,0 c 0.12154,0 0.14972,0.0211 0.14972,0.14796 v 0.0387 h -0.36285 c -0.074,0 -0.13915,0.0123 -0.19727,0.0634 -0.0634,0.0564 -0.0828,0.10744 -0.0828,0.18847 v 0.074 c 0,0.0881 0.0176,0.14971 0.0881,0.20784 0.0616,0.0511 0.11625,0.0599 0.19199,0.0599 h 0.16205 c 0.0546,0 0.0564,0 0.10392,-0.0247 l 0.11625,-0.0599 c -0.002,0.0476 0.0423,0.0846 0.0863,0.0846 0.0564,0 0.081,-0.0493 0.0793,-0.0986 l -0.0176,-0.57421 c -0.002,-0.0846 -0.0106,-0.13563 -0.0757,-0.2008 -0.0669,-0.0669 -0.13034,-0.0757 -0.21841,-0.0757 h -0.2325 c -0.0564,0 -0.11626,0.0123 -0.11626,0.0845 0,0.074 0.0669,0.0846 0.11626,0.0846 z m 0.0387,0.3558 c 0.0934,0 0.11978,0.0282 0.11978,0.12154 v 0.037 l -0.18671,0.0969 h -0.18671 c -0.0405,0 -0.1092,-0.0123 -0.1092,-0.0687 v -0.11273 c 0,-0.0616 0.0669,-0.074 0.11272,-0.074 z m 1.88185,0.0317 c 0,0.10392 0.0194,0.155 0.1004,0.22193 l 0.12506,0.10392 c 0.0793,0.0652 0.11978,0.0669 0.21841,0.0669 h 0.26774 c 0.0564,0 0.11625,-0.0123 0.11625,-0.0846 0,-0.074 -0.0669,-0.0846 -0.11625,-0.0846 h -0.29768 c -0.0335,0 -0.0669,-0.0176 -0.0969,-0.0423 l -0.10216,-0.0863 c -0.0264,-0.0211 -0.0458,-0.0387 -0.0458,-0.0722 v -0.2096 c 0,-0.0335 0.0194,-0.0511 0.0458,-0.0722 l 0.10216,-0.0863 c 0.0299,-0.0247 0.0634,-0.0423 0.0969,-0.0423 h 0.29768 c 0.0493,0 0.11625,-0.0106 0.11625,-0.0846 0,-0.0722 -0.0599,-0.0845 -0.11625,-0.0845 h -0.26774 c -0.0986,0 -0.13915,0.002 -0.21841,0.0669 l -0.12506,0.10392 c -0.081,0.0669 -0.1004,0.11802 -0.1004,0.22194 z m 2.58289,-0.16205 v -0.62706 c 0,-0.0581 -0.0123,-0.11625 -0.0846,-0.11625 -0.0722,0 -0.0846,0.0581 -0.0846,0.11625 v 1.06564 c 0,0.0581 0.0123,0.11626 0.0846,0.11626 0.0722,0 0.0846,-0.0581 0.0846,-0.11626 v -0.21488 l 0.0704,-0.0634 0.4245,0.35403 c 0.0247,0.0194 0.0458,0.0405 0.0793,0.0405 0.0476,0 0.0845,-0.0387 0.0845,-0.0863 0,-0.044 -0.0282,-0.0634 -0.0599,-0.0898 l -0.39808,-0.33114 0.32762,-0.27126 c 0.03,-0.0247 0.0564,-0.044 0.0564,-0.0845 0,-0.0476 -0.037,-0.0863 -0.0846,-0.0863 -0.0405,0 -0.0828,0.0423 -0.11273,0.0687 z"
               id="text22"
               aria-label="opensource    webstack" /><path
               style="font-weight:bold;font-size:35.5295px;font-family:Rubik;-inkscape-font-specification:'Rubik Bold';letter-spacing:-3.70417px;stroke-width:0.211062"
               d="m 135.14119,189.77827 q 0.0279,0 0.0481,0.0203 0.0203,0.0203 0.0203,0.0481 v 0.26847 q 0,0.0279 -0.0203,0.0481 -0.0203,0.0203 -0.0481,0.0203 h -0.44576 v 1.2993 q 0,0.0279 -0.0203,0.0481 -0.0203,0.0203 -0.0481,0.0203 h -0.33179 q -0.0279,0 -0.0481,-0.0203 -0.0203,-0.0203 -0.0203,-0.0481 v -1.2993 h -0.44576 q -0.0279,0 -0.0481,-0.0203 -0.0203,-0.0203 -0.0203,-0.0481 v -0.26847 q 0,-0.0279 0.0203,-0.0481 0.0203,-0.0203 0.0481,-0.0203 z m 0.50084,0.8662 v 0.83834 q 0,0.0279 -0.0203,0.0481 -0.0203,0.0203 -0.0481,0.0203 h -0.33179 q -0.0279,0 -0.0481,-0.0203 -0.0203,-0.0203 -0.0203,-0.0481 v -1.63616 q 0,-0.0278 0.0203,-0.0481 0.0203,-0.0203 0.0481,-0.0203 h 0.2938 q 0.0709,0 0.1089,0.0684 l 0.41031,0.70157 0.4103,-0.70157 q 0.038,-0.0684 0.10891,-0.0684 h 0.2938 q 0.0279,0 0.0481,0.0203 0.0203,0.0203 0.0203,0.0481 v 1.63616 q 0,0.0279 -0.0203,0.0481 -0.0203,0.0203 -0.0481,0.0203 h -0.33179 q -0.0279,0 -0.0481,-0.0203 -0.0203,-0.0203 -0.0203,-0.0481 v -0.83834 l -0.23807,0.4179 q -0.0178,0.0279 -0.0405,0.0456 -0.0203,0.0177 -0.0532,0.0177 h -0.16209 q -0.0329,0 -0.0557,-0.0177 -0.0203,-0.0177 -0.038,-0.0456 z"
               id="path23"
               aria-label="TM" /><g
               id="text24"
               style="font-size:36.8354px;stroke-width:3.0696"
               transform="scale(1.1026025,0.90694516)"
               aria-label="Gorjs"><path
                 style="font-family:Higher;-inkscape-font-specification:Higher"
                 d="m 100.48193,196.58047 v 2.35746 h -5.525305 v 22.91162 h 3.167844 v -19.74377 h -1.583922 v -1.58393 h 3.941383 v 23.68517 h -7.882771 v -27.62655 z m 1.84177,0 h 7.88278 v 27.62655 h -7.88278 z m 5.52531,25.23225 v -22.87479 h -3.16784 v 22.87479 z m 12.08201,-20.51732 -1.17873,1.21557 1.17873,1.17873 v 20.51732 h -2.3943 V 203.6897 h -3.13101 v 20.44365 h -2.35746 v -27.55288 h 7.88277 z m -2.3943,0.0368 v -2.35746 h -3.16784 v 2.35746 z"
                 id="path25" /><path
                 style="font-family:Higher;-inkscape-font-specification:Higher"
                 d="m 121.77279,196.58047 h 7.88277 v 27.62655 h -7.88277 v -11.82417 h 2.35746 v 0 0 9.4667 h 3.16785 v -22.91162 h -5.52531 z m 12.08201,2.35746 v 1.58392 h 5.52531 v 23.68517 h -7.88278 v -2.3943 h 5.52531 v -19.70694 h -5.52531 v -5.52531 h 7.88278 v 2.35746 z"
                 id="path26" /></g></g></g><path
           id="rect26"
           style="fill:#554400;stroke-width:0.0698112"
           d="m 47.044079,241.325 h 8.832768 v 32.64283 h -8.832768 z" /></g><path
         style="font-size:7.20091px;font-family:Slackey;-inkscape-font-specification:Slackey;letter-spacing:0px;fill:#aa8800;stroke-width:0.600076"
         d="m -265.70576,42.08386 q -0.92121,0.04922 -1.83539,0.08439 -0.91418,0.02813 -1.83539,0.06329 -0.007,0.02813 -0.007,0.05626 0,0.02813 0,0.05626 0,0.239093 0.10548,0.365671 0.11252,0.126579 0.27426,0.182836 0.16174,0.04922 0.35864,0.05626 0.1969,0.007 0.36567,0.007 0.47115,0 0.9423,-0.02813 0.47116,-0.03516 0.94934,-0.07032 l 0.0563,1.11811 q -0.46412,0.0211 -0.92824,0.03516 -0.45709,0.01406 -0.92121,0.01406 -0.0985,0 -0.36567,0 -0.26019,-0.007 -0.56257,-0.0211 -0.29535,-0.0211 -0.55554,-0.04922 -0.26019,-0.02813 -0.34458,-0.07735 -0.21799,-0.126578 -0.34457,-0.323478 -0.11955,-0.1969 -0.18987,-0.428961 -0.0633,-0.23206 -0.0914,-0.471153 -0.0211,-0.246125 -0.0281,-0.471153 -0.007,-0.03516 -0.007,-0.07032 0.007,-0.04219 0.007,-0.07735 0,-0.372703 0.0774,-0.68915 0.0844,-0.323478 0.30238,-0.62586 0.14767,-0.210964 0.43599,-0.351607 0.28832,-0.140643 0.62586,-0.217996 0.33754,-0.08439 0.67509,-0.112515 0.33754,-0.03516 0.58366,-0.03516 0.218,0 0.53445,0.04219 0.31644,0.03516 0.62586,0.126578 0.31644,0.09142 0.5696,0.239093 0.25316,0.140643 0.34458,0.351607 0.0141,0.04219 0.0281,0.147675 0.0211,0.09845 0.0422,0.23206 0.0211,0.126579 0.0352,0.274254 0.0211,0.147675 0.0352,0.281285 0.0141,0.133611 0.0211,0.239093 0.0141,0.105482 0.0211,0.147675 z m -0.95637,-0.513346 q -0.0422,-0.309414 -0.16174,-0.485218 -0.11251,-0.182835 -0.28832,-0.267221 -0.16877,-0.09142 -0.3938,-0.112514 -0.21799,-0.02813 -0.47115,-0.02813 -0.0844,0 -0.21096,0.007 -0.12658,0 -0.25316,0.0211 -0.12658,0.01406 -0.23909,0.04922 -0.11252,0.03516 -0.17581,0.09845 -0.0492,0.04219 -0.0844,0.119546 -0.0281,0.07032 -0.0492,0.154707 -0.0211,0.08439 -0.0352,0.168771 -0.007,0.07735 -0.007,0.133611 0,0.112514 0.0211,0.217996 z m 5.60461,1.033724 q 0,0.189868 0,0.386768 0,0.189868 -0.0141,0.379735 l -1.56817,0.09845 q 0.0281,-0.365671 0.0422,-0.72431 0.0211,-0.358639 0.0211,-0.731343 0,-0.03516 0,-0.119546 0,-0.08439 -0.007,-0.175803 -0.007,-0.09845 -0.0141,-0.182836 -0.007,-0.08439 -0.0141,-0.119546 -0.0352,-0.09845 -0.0773,-0.168772 -0.0352,-0.07032 -0.0914,-0.112514 -0.0492,-0.04219 -0.12658,-0.05626 -0.0774,-0.0211 -0.18987,-0.0211 -0.0844,0 -0.21799,0.01406 -0.12658,0.01406 -0.26019,0.04219 -0.13361,0.02813 -0.25316,0.07032 -0.11954,0.04219 -0.16877,0.09845 l -0.0141,2.074481 q -0.0141,-0.02813 -0.0844,-0.02813 -0.0633,0 -0.0914,0 -0.21096,0 -0.43599,0.0211 -0.22503,0.01406 -0.43599,0.04219 -0.0914,-0.829793 -0.16174,-1.652553 -0.0703,-0.82276 -0.16174,-1.652553 0.14064,-0.007 0.28128,-0.007 0.14065,-0.007 0.28129,-0.007 0.18284,0 0.36567,0.01406 0.18987,0.007 0.3727,0.01407 l 0.0492,0.541474 q 0.1969,-0.323478 0.53444,-0.541474 0.33755,-0.217997 0.72431,-0.217997 0.1969,0 0.40787,0.0211 0.21096,0.0211 0.40083,0.08439 0.1969,0.06329 0.36567,0.175803 0.1758,0.112514 0.29535,0.288318 0.0563,0.08438 0.0914,0.253157 0.0422,0.161739 0.0703,0.372703 0.0281,0.203932 0.0422,0.435993 0.0211,0.23206 0.0281,0.443024 0.007,0.210965 0.007,0.386768 0.007,0.168771 0.007,0.260189 z m 1.99713,-2.615955 q 0,0.140642 -0.0633,0.260189 -0.0633,0.119546 -0.16174,0.217996 -0.0985,0.09142 -0.22502,0.147675 -0.12658,0.04922 -0.26019,0.04922 -0.14065,0 -0.26723,-0.06329 -0.11954,-0.06329 -0.21096,-0.16174 -0.0914,-0.09845 -0.14064,-0.225028 -0.0492,-0.133611 -0.0492,-0.274253 0,-0.267222 0.18987,-0.450057 0.1969,-0.182836 0.46412,-0.182836 0.13361,0 0.26019,0.05626 0.13361,0.04922 0.23206,0.147675 0.10548,0.09142 0.16877,0.217996 0.0633,0.119547 0.0633,0.26019 z m 0.14768,2.088545 q 0,0.562571 0,1.111078 0,0.548506 -0.007,1.111078 0,0.182835 -0.007,0.365671 -0.007,0.182835 -0.007,0.365671 0,0.161739 -0.0141,0.351607 -0.0141,0.189868 -0.0633,0.365671 -0.0422,0.182836 -0.14768,0.323479 -0.0985,0.140642 -0.28128,0.196899 -0.0633,0.0211 -0.26722,0.03516 -0.20394,0.01406 -0.436,0.0211 -0.23206,0.007 -0.44302,0.007 -0.20393,0 -0.27426,0 -0.10548,0 -0.21096,-0.007 -0.10548,0 -0.20393,0 -0.0141,-0.267222 -0.0563,-0.513347 -0.0492,-0.239092 -0.0914,-0.506314 l 0.69619,-0.06329 q 0.0984,-0.007 0.21096,-0.01406 0.11955,-0.007 0.218,-0.04219 0.0985,-0.02813 0.16174,-0.105482 0.0633,-0.07032 0.0633,-0.210964 0,-0.323479 -0.0281,-0.646957 -0.0281,-0.323478 -0.0492,-0.646957 -0.0352,-0.52741 -0.0773,-1.054821 -0.0422,-0.52741 -0.0844,-1.068885 0.0774,0.007 0.14768,0.007 0.0703,0 0.14767,0 0.27425,0 0.54851,-0.01406 0.28128,-0.0211 0.55554,-0.03516 z m 5.97732,-0.168772 q 0,0.05626 0,0.112515 0,0.04922 -0.007,0.105482 -0.007,0.09845 -0.0352,0.323478 -0.0281,0.225029 -0.0773,0.471153 -0.0492,0.239093 -0.11955,0.443025 -0.0703,0.203932 -0.1547,0.260189 -0.0422,0.02813 -0.28832,0.04922 -0.23909,0.0211 -0.5907,0.04219 -0.34458,0.0211 -0.75244,0.03516 -0.40786,0.01406 -0.78057,0.02813 -0.36567,0.007 -0.64695,0.01407 -0.27426,0.007 -0.36568,0.007 -0.0422,0 -0.14767,0 -0.0985,0 -0.21096,0 -0.11252,-0.007 -0.21097,-0.01407 -0.0985,-0.007 -0.14064,-0.0211 -0.0985,-0.03516 -0.1969,-0.112514 -0.0984,-0.08439 -0.18284,-0.182836 -0.0844,-0.105482 -0.1547,-0.210964 -0.0633,-0.112514 -0.0914,-0.210964 -0.0211,-0.07735 -0.0352,-0.232061 -0.0141,-0.161739 -0.0211,-0.33051 -0.007,-0.175804 -0.0141,-0.337543 0,-0.161739 0,-0.246125 0,-0.13361 0.007,-0.365671 0.007,-0.239093 0.0422,-0.485218 0.0352,-0.246124 0.0984,-0.457089 0.0703,-0.217996 0.1969,-0.302382 0.0563,-0.03516 0.21097,-0.06329 0.1547,-0.02813 0.36567,-0.04922 0.21096,-0.0211 0.45005,-0.02813 0.2391,-0.01407 0.46412,-0.01407 0.23207,-0.007 0.42897,-0.007 0.1969,0 0.31644,0.007 0.10548,0.007 0.30238,0.01407 0.1969,0 0.436,0.007 0.24612,0.007 0.50631,0.02813 0.26019,0.01407 0.48522,0.04219 0.22503,0.02813 0.3938,0.07735 0.1758,0.04219 0.23206,0.105482 0.0914,0.09845 0.14767,0.29535 0.0563,0.1969 0.0844,0.421928 0.0352,0.217996 0.0422,0.435993 0.0141,0.210964 0.0141,0.344574 z m -1.49082,0.147675 q 0,-0.08439 -0.007,-0.1969 -0.007,-0.112514 -0.0211,-0.225028 -0.0141,-0.119546 -0.0422,-0.225028 -0.0281,-0.112515 -0.0703,-0.182836 -0.0563,-0.09142 -0.218,-0.140643 -0.16174,-0.04922 -0.35864,-0.07032 -0.18986,-0.02813 -0.37973,-0.03516 -0.18284,-0.007 -0.27425,-0.007 -0.0492,0 -0.17581,0.007 -0.12658,0 -0.26722,0.007 -0.13361,0.007 -0.25316,0.02813 -0.11954,0.01406 -0.1547,0.03516 -0.0633,0.04219 -0.0984,0.133611 -0.0352,0.08439 -0.0563,0.189868 -0.0141,0.105482 -0.0211,0.210964 0,0.09845 0,0.161739 0,0.06329 0.007,0.232061 0.0141,0.161739 0.0281,0.351607 0.0211,0.182835 0.0492,0.337542 0.0281,0.154707 0.0703,0.1969 0.0492,0.05626 0.18284,0.09142 0.14064,0.03516 0.29535,0.06329 0.16173,0.0211 0.30941,0.03516 0.14767,0.007 0.21096,0.007 0.11252,0 0.26722,-0.007 0.15471,-0.007 0.30942,-0.03516 0.16174,-0.02813 0.30238,-0.07735 0.14064,-0.04922 0.22503,-0.133611 0.0492,-0.04922 0.0773,-0.147675 0.0281,-0.09845 0.0422,-0.210964 0.0141,-0.112514 0.0141,-0.217996 0.007,-0.112514 0.007,-0.175804 z m 7.03214,1.251721 q 0,0.07735 0,0.225028 0,0.147675 -0.007,0.337543 -0.007,0.182836 -0.0211,0.386768 -0.007,0.1969 -0.0211,0.379735 -0.0141,0.175804 -0.0422,0.309414 -0.0211,0.140643 -0.0492,0.1969 -0.11955,0.189868 -0.22503,0.288318 -0.0985,0.105482 -0.218,0.147675 -0.11954,0.04219 -0.27425,0.04219 -0.14767,0.007 -0.35161,0.007 -0.67508,0 -1.34314,-0.05626 -0.66805,-0.04922 -1.3361,-0.119547 v -0.963403 q 0.0633,0 0.27425,0 0.218,-0.007 0.50632,-0.01406 0.28831,-0.007 0.61179,-0.0211 0.32348,-0.01407 0.60477,-0.03516 0.28128,-0.0211 0.48521,-0.04922 0.20394,-0.02813 0.25316,-0.07032 0.0633,-0.04922 0.0984,-0.147675 0.0422,-0.105482 0.0563,-0.217997 0.0211,-0.112514 0.0281,-0.225028 0.007,-0.112514 0.007,-0.182836 0,-0.07032 0,-0.13361 0,-0.06329 -0.007,-0.140643 -0.10549,0.239093 -0.28129,0.358639 -0.1758,0.119546 -0.3938,0.168771 -0.218,0.04922 -0.45709,0.05626 -0.23909,0 -0.45709,0 -0.45709,0 -0.88605,-0.03516 -0.42193,-0.04219 -0.75244,-0.203932 -0.32347,-0.161739 -0.52741,-0.485218 -0.1969,-0.33051 -0.1969,-0.907146 0,-0.569603 0.0774,-1.132174 0.0774,-0.569603 0.1969,-1.125142 l 1.48378,0.01406 q -0.11955,0.443025 -0.21097,0.900114 -0.0914,0.457089 -0.0914,0.92121 0,0.246125 0.0352,0.400832 0.0352,0.154707 0.12658,0.253157 0.0914,0.09142 0.25315,0.126578 0.16174,0.03516 0.40787,0.03516 0.0985,0 0.23909,-0.01406 0.14767,-0.01407 0.29535,-0.03516 0.15471,-0.02813 0.28832,-0.07032 0.14064,-0.04219 0.21799,-0.105482 0.0281,-0.0211 0.0492,-0.140643 0.0211,-0.119547 0.0352,-0.281286 0.0141,-0.168771 0.0211,-0.358639 0.007,-0.189868 0.007,-0.358639 0.007,-0.168771 0.007,-0.288318 0,-0.126578 0,-0.161739 0,-0.239093 0,-0.471153 0,-0.239093 -0.0141,-0.478186 0.34457,0.03516 0.67508,0.06329 0.33754,0.0211 0.68212,0.03516 0.0281,0.682118 0.0563,1.350171 0.0352,0.668053 0.0703,1.350171 0.0141,0.168771 0.0141,0.344574 0,0.168772 0,0.330511 z"
         id="text26"
         inkscape:transform-center-x="2.2215272"
         inkscape:transform-center-y="-11.58442"
         transform="rotate(-92.020667)"
         aria-label="enjoy" /></g></g></svg>
